<?xml version="1.0" encoding="UTF-8" standalone="no"?>
<!-- Created with Inkscape (http://www.inkscape.org/) -->

<svg
   width="1000"
   height="629.62964"
   viewBox="0 0 264.58334 166.58951"
   version="1.1"
   id="svg1"
   xml:space="preserve"
   inkscape:version="1.3 (0e150ed, 2023-07-21)"
   sodipodi:docname="card_face.svg"
   xmlns:inkscape="http://www.inkscape.org/namespaces/inkscape"
   xmlns:sodipodi="http://sodipodi.sourceforge.net/DTD/sodipodi-0.dtd"
   xmlns:xlink="http://www.w3.org/1999/xlink"
   xmlns="http://www.w3.org/2000/svg"
   xmlns:svg="http://www.w3.org/2000/svg"><sodipodi:namedview
     id="namedview1"
     pagecolor="#ffffff"
     bordercolor="#000000"
     borderopacity="0.25"
     inkscape:showpageshadow="2"
     inkscape:pageopacity="0.0"
     inkscape:pagecheckerboard="0"
     inkscape:deskcolor="#d1d1d1"
     inkscape:document-units="mm"
     showgrid="true"
     inkscape:zoom="0.43605507"
     inkscape:cx="388.71237"
     inkscape:cy="368.07278"
     inkscape:window-width="1080"
     inkscape:window-height="766"
     inkscape:window-x="273"
     inkscape:window-y="81"
     inkscape:window-maximized="0"
     inkscape:current-layer="layer1"
     showguides="true"
     inkscape:export-bgcolor="#565c76ff"><inkscape:page
       x="0"
       y="0"
       width="264.58334"
       height="166.58951"
       id="page1"
       margin="0"
       bleed="0" /></sodipodi:namedview><defs
     id="defs1"><linearGradient
       id="linearGradient4"
       inkscape:collect="always"><stop
         style="stop-color:#02c39a;stop-opacity:0.75;"
         offset="0"
         id="stop4" /><stop
         style="stop-color:#028090;stop-opacity:0.5;"
         offset="1"
         id="stop5" /></linearGradient><linearGradient
       id="linearGradient2"
       inkscape:collect="always"><stop
         style="stop-color:#90e0ef;stop-opacity:1;"
         offset="0"
         id="stop2" /><stop
         style="stop-color:#0077e6;stop-opacity:0.85000002;"
         offset="1"
         id="stop3" /></linearGradient><linearGradient
       inkscape:collect="always"
       xlink:href="#linearGradient2"
       id="linearGradient3"
       x1="40.766209"
       y1="32.840057"
       x2="40.625034"
       y2="63.734833"
       gradientUnits="userSpaceOnUse"
       gradientTransform="matrix(3.1692373,0,0,3.1692373,-3.5107534,-11.563196)" /><linearGradient
       inkscape:collect="always"
       xlink:href="#linearGradient4"
       id="linearGradient5"
       x1="39.753727"
       y1="35.472794"
       x2="39.736462"
       y2="62.886467"
       gradientUnits="userSpaceOnUse"
       gradientTransform="matrix(3.1692373,0,0,3.1692373,-3.5107534,-11.563196)" /><clipPath
       id="def69ae998"><path
         d="M 4,34.332031 H 371.43359 V 328.33203 H 4 Z m 0,0"
         clip-rule="nonzero"
         id="path1-5" /></clipPath><clipPath
       id="a2f0e44da2"><path
         d="M 4,183 H 351 V 328.33203 H 4 Z m 0,0"
         clip-rule="nonzero"
         id="path2-5" /></clipPath><clipPath
       id="f9b0ca3fc0"><path
         d="M 123,155.25391 H 246.67578 V 279 H 123 Z m 0,0"
         clip-rule="nonzero"
         id="path3" /></clipPath><clipPath
       id="115ade8915"><path
         d="M 61.425781,267 H 135 v 73.50391 H 61.425781 Z m 0,0"
         clip-rule="nonzero"
         id="path4" /></clipPath><clipPath
       id="def69ae998-9"><path
         d="M 4,34.332031 H 371.43359 V 328.33203 H 4 Z m 0,0"
         clip-rule="nonzero"
         id="path1-5-0" /></clipPath><clipPath
       id="a2f0e44da2-2"><path
         d="M 4,183 H 351 V 328.33203 H 4 Z m 0,0"
         clip-rule="nonzero"
         id="path2-5-3" /></clipPath><clipPath
       id="f9b0ca3fc0-9"><path
         d="M 123,155.25391 H 246.67578 V 279 H 123 Z m 0,0"
         clip-rule="nonzero"
         id="path3-9" /></clipPath><clipPath
       id="115ade8915-7"><path
         d="M 61.425781,267 H 135 v 73.50391 H 61.425781 Z m 0,0"
         clip-rule="nonzero"
         id="path4-0" /></clipPath></defs><g
     inkscape:label="Layer 1"
     inkscape:groupmode="layer"
     id="layer1"><path
       style="fill:url(#linearGradient3);fill-opacity:0.85098;stroke:none;stroke-width:0.838526;stroke-opacity:1"
       d="m 268.49989,113.13331 c -20.52339,-22.198755 -50.02299,-5.74464 -50.02299,-5.74464 0,0 -70.36589,30.15682 -119.789563,-0.41884 C 49.263668,76.394173 -3.929598,106.13214 -3.929598,106.13214 L -5.3181044,172.9699 271.46382,171.8622 Z"
       id="path1"
       sodipodi:nodetypes="csccccc" /><g
       id="g7"
       transform="matrix(0.33425166,0.04855684,-0.04855684,0.33425166,127.78401,20.486584)"><g
         clip-path="url(#def69ae998)"
         id="g5"><path
           fill="#3b88c3"
           d="m 371.30469,32.832031 c -20.40235,30.601563 -20.40235,-10.199219 -51.00782,20.398438 -30.60156,-20.398438 -30.60156,30.601562 -61.20312,0 9.16797,27.53125 34.875,46.65625 62.22656,50.246091 -2.82812,18.25 2.0586,40.25 -21.42578,61.94531 -20.48047,18.94141 -30.83594,3.1836 -81.60547,-30.58984 C 187.68359,114.47266 167.28125,94.03125 116.27734,104.23047 56.265625,116.23828 4.066406,165.42187 4.066406,185.82031 c 0,20.40235 30.601563,142.48438 214.222654,142.48438 20.40235,0 53.48438,-6.77344 81.60547,-30.28125 60.75,-50.77735 60.00391,-156.5625 46.72266,-198.453128 18.15625,-11.496093 24.6875,-42.328124 24.6875,-66.738281 z m 0,0"
           fill-opacity="1"
           fill-rule="nonzero"
           id="path5" /></g><g
         clip-path="url(#a2f0e44da2)"
         id="g6"><path
           fill="#55acee"
           d="m 312.28125,285.90234 c 1.51953,-1.67968 2.94922,-3.44531 4.375,-5.21093 19.16797,-23.98047 29.60547,-54.5586 34.22656,-84.5586 -20.39453,50.96875 -30.66406,101.89063 -142.79687,101.89063 -112.21094,0 -153.015628,-132.60157 -204.019534,-112.20313 0,20.40235 30.601563,142.48438 214.222654,142.48438 20.40235,0 53.48438,-6.77344 81.60547,-30.28125 3.24609,-2.71485 6.24609,-5.65235 9.17188,-8.66016 1.09375,-1.13281 2.16406,-2.27734 3.21484,-3.46094 z m 0,0"
           fill-opacity="1"
           fill-rule="nonzero"
           id="path6" /></g><path
         fill="#292f33"
         d="m 85.675781,180.72266 c 0,1.0039 -0.09766,2 -0.296875,2.98437 -0.195312,0.98438 -0.484375,1.94141 -0.867187,2.87109 -0.386719,0.92579 -0.859375,1.8086 -1.414063,2.64454 -0.558594,0.83593 -1.195312,1.60546 -1.90625,2.3164 -0.707031,0.71094 -1.480468,1.34766 -2.316406,1.90235 -0.835938,0.55859 -1.71875,1.03125 -2.644531,1.41406 -0.929688,0.38672 -1.886719,0.67578 -2.871094,0.87109 -0.988281,0.19531 -1.980469,0.29688 -2.984375,0.29688 -1.007812,0 -2,-0.10157 -2.988281,-0.29688 -0.984375,-0.19531 -1.941407,-0.48437 -2.871094,-0.87109 -0.925781,-0.38281 -1.808594,-0.85547 -2.644531,-1.41406 -0.835938,-0.55469 -1.605469,-1.19141 -2.316406,-1.90235 -0.710938,-0.71094 -1.347657,-1.48047 -1.902344,-2.3164 -0.558594,-0.83594 -1.03125,-1.71875 -1.414063,-2.64454 -0.386719,-0.92968 -0.675781,-1.88671 -0.871093,-2.87109 -0.199219,-0.98437 -0.296876,-1.98047 -0.296876,-2.98437 0,-1.00391 0.09766,-2 0.296876,-2.98438 0.195312,-0.98828 0.484374,-1.94531 0.871093,-2.87109 0.382813,-0.92969 0.855469,-1.8086 1.414063,-2.64453 0.554687,-0.83594 1.191406,-1.60938 1.902344,-2.32032 0.710937,-0.71093 1.480468,-1.34375 2.316406,-1.90234 0.835937,-0.55859 1.71875,-1.02734 2.644531,-1.41406 0.929687,-0.38282 1.886719,-0.67578 2.871094,-0.8711 0.988281,-0.19531 1.980469,-0.29297 2.988281,-0.29297 1.003906,0 1.996094,0.0977 2.984375,0.29297 0.984375,0.19532 1.941406,0.48828 2.871094,0.8711 0.925781,0.38672 1.808593,0.85547 2.644531,1.41406 0.835938,0.55859 1.609375,1.19141 2.316406,1.90234 0.710938,0.71094 1.347656,1.48438 1.90625,2.32032 0.554688,0.83593 1.027344,1.71484 1.414063,2.64453 0.382812,0.92578 0.671875,1.88281 0.867187,2.87109 0.199219,0.98438 0.296875,1.98047 0.296875,2.98438 z m 0,0"
         fill-opacity="1"
         fill-rule="nonzero"
         id="path7" /><path
         fill="#ffbd1f"
         d="m 168.30078,201.27734 c 0.17188,0.0195 0.33984,0.0273 0.50391,0.0273 2.09375,0 3.90625,-1.57032 4.17187,-3.69922 0.28516,-2.32813 1.42188,-5.35547 2.59375,-5.96875 0.60156,-0.3125 1.8125,0.25781 2.30469,0.51953 0.082,0.043 0.16797,0.0859 0.25391,0.12109 4.85937,2.16016 16.71875,6.63672 21.85156,1.48047 2.65234,-2.66015 2.82812,-6.62109 0.51562,-11.76953 -0.95312,-2.125 -3.4414,-3.07031 -5.55859,-2.12109 -2.12109,0.95312 -3.06641,3.4414 -2.11719,5.55859 0.50391,1.125 0.71875,1.87891 0.8086,2.35156 -2.19141,0.21094 -7.51172,-1.17187 -11.96875,-3.13281 -4.52735,-2.33594 -7.9375,-1.53125 -10.01563,-0.44141 -5.66406,2.98438 -6.84375,10.875 -7.02734,12.42579 -0.26172,2.30078 1.38672,4.375 3.68359,4.64843 z m 0,0"
         fill-opacity="1"
         fill-rule="nonzero"
         id="path8" /><path
         fill="#ffbd1f"
         d="m 184.21484,234.69922 c -2.03515,-1.09766 -4.58984,-0.34375 -5.69531,1.70312 -0.58594,1.08203 -1.05859,1.71094 -1.375,2.07032 -1.47266,-1.60547 -3.63672,-6.67188 -4.79687,-11.40235 -0.90235,-5.01953 -3.61329,-7.23828 -5.73829,-8.21875 -5.82031,-2.67969 -12.79687,1.1836 -14.13671,1.98828 -1.98829,1.1875 -2.63282,3.75782 -1.45313,5.75 1.18359,1.99219 3.76563,2.65235 5.75781,1.47266 2.02344,-1.1875 5.1211,-2.12109 6.31641,-1.57031 0.61328,0.28515 0.89844,1.59375 0.99219,2.14453 0.0156,0.0898 0.0352,0.1875 0.0547,0.27734 1.24219,5.16797 4.91407,17.30078 12.1211,18.24219 0.32812,0.043 0.65625,0.0625 0.97656,0.0625 3.31641,0 6.23438,-2.28906 8.68359,-6.82031 1.09766,-2.04297 0.33985,-4.59375 -1.70703,-5.69922 z m 0,0"
         fill-opacity="1"
         fill-rule="nonzero"
         id="path9" /><path
         fill="#ffbd1f"
         d="m 220.54297,219.54687 c -2.28125,-0.38281 -4.45703,1.16407 -4.83985,3.45704 -0.20312,1.21093 -0.4414,1.96093 -0.6289,2.40234 -1.91016,-1.03906 -5.59766,-5.12891 -8.23047,-9.23438 -2.47656,-4.45312 -5.76172,-5.67578 -8.09766,-5.91406 -6.38281,-0.66406 -11.71875,5.26563 -12.72656,6.46094 -1.49609,1.76562 -1.27344,4.40625 0.48828,5.91016 1.75781,1.5 4.41406,1.28515 5.92188,-0.47266 1.53125,-1.78125 4.16797,-3.65234 5.46484,-3.53125 0.67578,0.0703 1.36719,1.21484 1.63281,1.70703 0.043,0.082 0.0937,0.16406 0.14453,0.24219 2.66797,4.19922 9.3125,13.47265 15.99219,13.47265 0.46094,0 0.92188,-0.0469 1.38281,-0.13671 3.67969,-0.7461 6.01563,-3.94922 6.94922,-9.51954 0.38672,-2.29296 -1.16015,-4.46093 -3.45312,-4.84375 z m 0,0"
         fill-opacity="1"
         fill-rule="nonzero"
         id="path10" /><g
         clip-path="url(#f9b0ca3fc0)"
         id="g11"><path
           fill="#e4e9ea"
           d="m 185.10547,155.19141 c -33.86719,0 -61.42188,27.55468 -61.42188,61.42187 0,15.42578 5.72657,29.52734 15.15235,40.32813 l -7.16016,7.16015 c -1.64453,1.64063 -1.64453,4.30078 0,5.94531 0.82031,0.82032 1.89453,1.23047 2.97266,1.23047 1.07812,0 2.15234,-0.41015 2.97265,-1.23047 l 7.16016,-7.16015 c 10.79687,9.42187 24.90234,15.14844 40.32422,15.14844 33.86719,0 61.42187,-27.55469 61.42187,-61.42188 0,-33.86719 -27.55078,-61.42187 -61.42187,-61.42187 z m 0,114.43359 c -29.23047,0 -53.01172,-23.78125 -53.01172,-53.00781 0,-29.23047 23.78125,-53.01172 53.01172,-53.01172 29.23047,0 53.01172,23.78125 53.01172,53.01172 0,29.22656 -23.78125,53.00781 -53.01172,53.00781 z m 0,0"
           fill-opacity="1"
           fill-rule="nonzero"
           id="path11" /></g><g
         clip-path="url(#115ade8915)"
         id="g12"><path
           fill="#14c4ed"
           d="m 116.44141,267.59766 c -4.72657,0 -9.16797,1.83984 -12.50391,5.17968 l -37.390625,37.39453 c -3.339844,3.33594 -5.179687,7.77735 -5.179687,12.50391 0,4.72266 1.839843,9.16406 5.179687,12.50391 3.335937,3.33984 7.777344,5.17578 12.5,5.17578 4.726563,0 9.167969,-1.83594 12.507813,-5.17578 l 37.390622,-37.39453 c 3.33594,-3.33985 5.17578,-7.78125 5.17578,-12.50391 0,-4.72266 -1.83984,-9.16406 -5.17578,-12.50391 -3.33984,-3.33984 -7.78125,-5.17968 -12.5039,-5.17968 z m 6.55468,24.24218 -37.390621,37.39063 c -1.75,1.7539 -4.078125,2.71484 -6.558594,2.71484 -2.476563,0 -4.804687,-0.96094 -6.554687,-2.71484 -1.75,-1.75 -2.71875,-4.07813 -2.71875,-6.55469 0,-2.48047 0.96875,-4.80859 2.71875,-6.55859 l 37.390622,-37.39453 c 1.75,-1.75 4.07813,-2.71485 6.5586,-2.71485 2.47656,0 4.80468,0.96485 6.55468,2.71485 1.75391,1.7539 2.71875,4.08203 2.71875,6.55859 -0.004,2.47656 -0.96484,4.80469 -2.71875,6.55859 z m 0,0"
           fill-opacity="1"
           fill-rule="nonzero"
           id="path12" /></g></g><path
       style="fill:url(#linearGradient5);fill-opacity:0.85098;stroke:none;stroke-width:0.838526;stroke-opacity:1"
       d="m 268.98004,123.30477 c -32.66988,3.35075 -84.8484,-4.18845 -107.46601,-15.07841 -22.61761,-10.889959 -72.878971,-9.633426 -103.035779,6.28267 -30.156814,15.91609 -63.2455382,-0.83769 -63.2455382,-0.83769 l -0.091132,57.39705 275.2884592,-0.58524 z"
       id="path2"
       sodipodi:nodetypes="csscccc" /><path
       sodipodi:type="star"
       style="fill:#ffbd1f;fill-opacity:1;stroke:none;stroke-width:0.264583;stroke-opacity:1"
       id="path13"
       inkscape:flatsided="false"
       sodipodi:sides="5"
       sodipodi:cx="11.399181"
       sodipodi:cy="7.7994394"
       sodipodi:r1="3.2241752"
       sodipodi:r2="1.6120877"
       sodipodi:arg1="0.78539816"
       sodipodi:arg2="1.4137167"
       inkscape:rounded="0.2"
       inkscape:randomized="0"
       d="M 13.679018,10.079276 C 13.376225,10.382068 12.074308,9.3246925 11.651367,9.3916797 11.228427,9.4586669 10.316977,10.866605 9.9354365,10.672201 9.5538961,10.477796 10.157205,8.9128522 9.9628007,8.5313119 9.7683962,8.1497716 8.1477139,7.718008 8.2147011,7.2950673 c 0.066987,-0.4229407 1.74177,-0.3327539 2.0445619,-0.635546 0.302792,-0.3027921 0.212606,-1.9775749 0.635546,-2.0445621 0.422941,-0.066987 0.854705,1.5536951 1.236245,1.7480996 0.38154,0.1944044 1.946484,-0.4089046 2.140889,-0.027364 0.194404,0.3815403 -1.213534,1.2929903 -1.280521,1.715931 -0.06699,0.4229407 0.990388,1.724858 0.687596,2.0276505 z"
       inkscape:transform-center-x="0.38668298"
       inkscape:transform-center-y="-0.38668274"
       transform="matrix(2.4809647,0,0,2.4809647,2.2465691,10.903805)" /><path
       sodipodi:type="star"
       style="fill:#ffbd1f;fill-opacity:1;stroke:none;stroke-width:0.264583;stroke-opacity:1"
       id="path13-5"
       inkscape:flatsided="false"
       sodipodi:sides="5"
       sodipodi:cx="11.399181"
       sodipodi:cy="7.7994394"
       sodipodi:r1="3.2241752"
       sodipodi:r2="1.6120877"
       sodipodi:arg1="0.78539816"
       sodipodi:arg2="1.4137167"
       inkscape:rounded="0.2"
       inkscape:randomized="0"
       d="M 13.679018,10.079276 C 13.376225,10.382068 12.074308,9.3246925 11.651367,9.3916797 11.228427,9.4586669 10.316977,10.866605 9.9354365,10.672201 9.5538961,10.477796 10.157205,8.9128522 9.9628007,8.5313119 9.7683962,8.1497716 8.1477139,7.718008 8.2147011,7.2950673 c 0.066987,-0.4229407 1.74177,-0.3327539 2.0445619,-0.635546 0.302792,-0.3027921 0.212606,-1.9775749 0.635546,-2.0445621 0.422941,-0.066987 0.854705,1.5536951 1.236245,1.7480996 0.38154,0.1944044 1.946484,-0.4089046 2.140889,-0.027364 0.194404,0.3815403 -1.213534,1.2929903 -1.280521,1.715931 -0.06699,0.4229407 0.990388,1.724858 0.687596,2.0276505 z"
       inkscape:transform-center-x="-0.2523859"
       inkscape:transform-center-y="-0.50985264"
       transform="matrix(2.4554574,0.67517523,-0.67517523,2.4554574,55.972497,-4.0463061)" /><path
       sodipodi:type="star"
       style="fill:#ffbd1f;fill-opacity:1;stroke:none;stroke-width:0.264583;stroke-opacity:1"
       id="path13-5-6"
       inkscape:flatsided="false"
       sodipodi:sides="5"
       sodipodi:cx="11.399181"
       sodipodi:cy="7.7994394"
       sodipodi:r1="3.2241752"
       sodipodi:r2="1.6120877"
       sodipodi:arg1="0.78539816"
       sodipodi:arg2="1.4137167"
       inkscape:rounded="0.2"
       inkscape:randomized="0"
       d="M 13.679018,10.079276 C 13.376225,10.382068 12.074308,9.3246925 11.651367,9.3916797 11.228427,9.4586669 10.316977,10.866605 9.9354365,10.672201 9.5538961,10.477796 10.157205,8.9128522 9.9628007,8.5313119 9.7683962,8.1497716 8.1477139,7.718008 8.2147011,7.2950673 c 0.066987,-0.4229407 1.74177,-0.3327539 2.0445619,-0.635546 0.302792,-0.3027921 0.212606,-1.9775749 0.635546,-2.0445621 0.422941,-0.066987 0.854705,1.5536951 1.236245,1.7480996 0.38154,0.1944044 1.946484,-0.4089046 2.140889,-0.027364 0.194404,0.3815403 -1.213534,1.2929903 -1.280521,1.715931 -0.06699,0.4229407 0.990388,1.724858 0.687596,2.0276505 z"
       inkscape:transform-center-x="0.040582149"
       inkscape:transform-center-y="-0.6636935"
       transform="matrix(2.2629405,0.33187803,-0.33187803,2.2629405,46.508628,29.634187)" /><path
       sodipodi:type="star"
       style="fill:#ffbd1f;fill-opacity:1;stroke:none;stroke-width:0.264583;stroke-opacity:1"
       id="path13-5-6-1"
       inkscape:flatsided="false"
       sodipodi:sides="5"
       sodipodi:cx="11.399181"
       sodipodi:cy="7.7994394"
       sodipodi:r1="3.2241752"
       sodipodi:r2="1.6120877"
       sodipodi:arg1="0.78539816"
       sodipodi:arg2="1.4137167"
       inkscape:rounded="0.2"
       inkscape:randomized="0"
       d="M 13.679018,10.079276 C 13.376225,10.382068 12.074308,9.3246925 11.651367,9.3916797 11.228427,9.4586669 10.316977,10.866605 9.9354365,10.672201 9.5538961,10.477796 10.157205,8.9128522 9.9628007,8.5313119 9.7683962,8.1497716 8.1477139,7.718008 8.2147011,7.2950673 c 0.066987,-0.4229407 1.74177,-0.3327539 2.0445619,-0.635546 0.302792,-0.3027921 0.212606,-1.9775749 0.635546,-2.0445621 0.422941,-0.066987 0.854705,1.5536951 1.236245,1.7480996 0.38154,0.1944044 1.946484,-0.4089046 2.140889,-0.027364 0.194404,0.3815403 -1.213534,1.2929903 -1.280521,1.715931 -0.06699,0.4229407 0.990388,1.724858 0.687596,2.0276505 z"
       inkscape:transform-center-x="-0.23192764"
       inkscape:transform-center-y="-0.35706658"
       transform="matrix(1.8830103,0.55859858,-0.55859858,1.8830103,3.5836746,37.79897)" /><path
       sodipodi:type="star"
       style="fill:#ffbd1f;fill-opacity:1;stroke:none;stroke-width:0.264583;stroke-opacity:1"
       id="path13-5-6-1-0"
       inkscape:flatsided="false"
       sodipodi:sides="5"
       sodipodi:cx="11.399181"
       sodipodi:cy="7.7994394"
       sodipodi:r1="3.2241752"
       sodipodi:r2="1.6120877"
       sodipodi:arg1="0.78539816"
       sodipodi:arg2="1.4137167"
       inkscape:rounded="0.2"
       inkscape:randomized="0"
       d="M 13.679018,10.079276 C 13.376225,10.382068 12.074308,9.3246925 11.651367,9.3916797 11.228427,9.4586669 10.316977,10.866605 9.9354365,10.672201 9.5538961,10.477796 10.157205,8.9128522 9.9628007,8.5313119 9.7683962,8.1497716 8.1477139,7.718008 8.2147011,7.2950673 c 0.066987,-0.4229407 1.74177,-0.3327539 2.0445619,-0.635546 0.302792,-0.3027921 0.212606,-1.9775749 0.635546,-2.0445621 0.422941,-0.066987 0.854705,1.5536951 1.236245,1.7480996 0.38154,0.1944044 1.946484,-0.4089046 2.140889,-0.027364 0.194404,0.3815403 -1.213534,1.2929903 -1.280521,1.715931 -0.06699,0.4229407 0.990388,1.724858 0.687596,2.0276505 z"
       inkscape:transform-center-x="0.364543"
       inkscape:transform-center-y="-0.13362"
       transform="matrix(1.5987974,-0.12293639,0.12293639,1.5987974,96.715707,28.340877)" /><path
       sodipodi:type="star"
       style="fill:#ffbd1f;fill-opacity:1;stroke:none;stroke-width:0.264583;stroke-opacity:1"
       id="path13-5-6-1-0-9"
       inkscape:flatsided="false"
       sodipodi:sides="5"
       sodipodi:cx="11.399181"
       sodipodi:cy="7.7994394"
       sodipodi:r1="3.2241752"
       sodipodi:r2="1.6120877"
       sodipodi:arg1="0.78539816"
       sodipodi:arg2="1.4137167"
       inkscape:rounded="0.2"
       inkscape:randomized="0"
       d="M 13.679018,10.079276 C 13.376225,10.382068 12.074308,9.3246925 11.651367,9.3916797 11.228427,9.4586669 10.316977,10.866605 9.9354365,10.672201 9.5538961,10.477796 10.157205,8.9128522 9.9628007,8.5313119 9.7683962,8.1497716 8.1477139,7.718008 8.2147011,7.2950673 c 0.066987,-0.4229407 1.74177,-0.3327539 2.0445619,-0.635546 0.302792,-0.3027921 0.212606,-1.9775749 0.635546,-2.0445621 0.422941,-0.066987 0.854705,1.5536951 1.236245,1.7480996 0.38154,0.1944044 1.946484,-0.4089046 2.140889,-0.027364 0.194404,0.3815403 -1.213534,1.2929903 -1.280521,1.715931 -0.06699,0.4229407 0.990388,1.724858 0.687596,2.0276505 z"
       inkscape:transform-center-x="0.018698067"
       inkscape:transform-center-y="-0.43092855"
       transform="matrix(1.4448826,0.21957065,-0.21957065,1.4448826,143.67655,9.3036417)" /><path
       sodipodi:type="star"
       style="fill:#ffbd1f;fill-opacity:1;stroke:none;stroke-width:0.264583;stroke-opacity:1"
       id="path13-5-6-1-0-9-9"
       inkscape:flatsided="false"
       sodipodi:sides="5"
       sodipodi:cx="11.399181"
       sodipodi:cy="7.7994394"
       sodipodi:r1="3.2241752"
       sodipodi:r2="1.6120877"
       sodipodi:arg1="0.78539816"
       sodipodi:arg2="1.4137167"
       inkscape:rounded="0.2"
       inkscape:randomized="0"
       d="M 13.679018,10.079276 C 13.376225,10.382068 12.074308,9.3246925 11.651367,9.3916797 11.228427,9.4586669 10.316977,10.866605 9.9354365,10.672201 9.5538961,10.477796 10.157205,8.9128522 9.9628007,8.5313119 9.7683962,8.1497716 8.1477139,7.718008 8.2147011,7.2950673 c 0.066987,-0.4229407 1.74177,-0.3327539 2.0445619,-0.635546 0.302792,-0.3027921 0.212606,-1.9775749 0.635546,-2.0445621 0.422941,-0.066987 0.854705,1.5536951 1.236245,1.7480996 0.38154,0.1944044 1.946484,-0.4089046 2.140889,-0.027364 0.194404,0.3815403 -1.213534,1.2929903 -1.280521,1.715931 -0.06699,0.4229407 0.990388,1.724858 0.687596,2.0276505 z"
       inkscape:transform-center-x="0.22769842"
       inkscape:transform-center-y="-0.22786717"
       transform="matrix(1.4614709,8.867795e-5,-8.867795e-5,1.4614709,113.87559,6.9297552)" /></g></svg>
