<?xml version="1.0" encoding="UTF-8"?>
<svg width="180px" height="120px" viewBox="0 0 180 120" version="1.1" xmlns="http://www.w3.org/2000/svg" xmlns:xlink="http://www.w3.org/1999/xlink">
    <title>full-green</title>
    <defs>
        <linearGradient x1="50%" y1="50%" x2="0%" y2="72.2222222%" id="linearGradient-1">
            <stop stop-color="#367878" offset="0%"></stop>
            <stop stop-color="#005D63" offset="100%"></stop>
        </linearGradient>
    </defs>
    <g id="Page-1" stroke="none" stroke-width="1" fill="none" fill-rule="evenodd">
        <g id="CX.com-member-benefit-page" transform="translate(-143.000000, -1289.000000)" fill-rule="nonzero">
            <g id="full-green" transform="translate(143.000000, 1289.000000)">
                <rect id="Rectangle" fill="url(#linearGradient-1)" x="0" y="0" width="180" height="120" rx="10"></rect>
                <g id="cathay-en" transform="translate(84.800000, 51.000000)" fill="#FFFFFF">
                    <path d="M14.7563198,11.97517 C14.6808936,11.699017 13.8839988,11.8163142 13.2255843,11.7560846 C12.6299256,11.7036848 11.8629927,11.592561 10.9404372,11.2718381 C10.079147,10.9685817 9.2461788,10.6210565 8.52008934,10.2256488 C8.52008934,10.2256488 8.22300532,10.0684493 8.19155287,10.0511333 C8.13341801,10.0145438 8.08631387,9.987591 8.02355804,9.95115206 C7.99046589,9.92886708 7.93382167,9.89528904 7.89625761,9.87962933 C7.84423436,9.85583861 7.81129128,9.82873526 7.76582684,9.80178249 C7.72170397,9.77332397 7.65879907,9.74320914 7.61646497,9.71610579 C7.5472994,9.67319215 7.50645594,9.64307732 7.44355104,9.59534531 C7.40583791,9.56688679 7.38541618,9.55725004 7.333542,9.52879152 C7.30208955,9.50816286 7.24708504,9.47624114 7.21727229,9.4572688 C7.15913743,9.41917353 7.12291494,9.38589664 7.06478009,9.34780138 C7.02706696,9.31919229 7.00187519,9.303382 6.95954109,9.27627865 C6.91541822,9.25248793 6.87457476,9.21755473 6.8370107,9.19060195 C6.8164399,9.17464109 6.78975749,9.15732506 6.76933576,9.13654583 C6.7268526,9.09543908 6.6845185,9.05734381 6.63890499,9.02391635 C6.59955217,8.9921452 6.5603484,8.95239362 6.51786524,8.92378453 C6.49431317,8.90330644 6.44869967,8.86521118 6.42365696,8.84608826 C6.35911236,8.80001257 6.3182689,8.76357362 6.25223366,8.71749792 C6.2113902,8.68572678 6.17531677,8.64281314 6.13447331,8.60953625 C6.08572947,8.57475362 6.0432463,8.53485146 5.99286276,8.50323089 C5.96305001,8.47778385 5.92697659,8.45083108 5.90342452,8.4238783 C5.87033237,8.38728878 5.84364996,8.36199232 5.80742747,8.3254028 C5.78238476,8.29845002 5.7382619,8.26667888 5.71157949,8.2397261 C5.66924539,8.18883203 5.61260117,8.13643222 5.56072699,8.09366916 C5.5277839,8.06189801 5.51824382,8.04759347 5.50572247,8.03178318 C5.49633146,8.01732806 5.4821704,8.00151777 5.46010897,7.97772705 L5.41300483,7.93014562 C5.40048347,7.91900313 5.38781306,7.90786064 5.35323027,7.87292743 C5.34234862,7.86193552 5.32177782,7.83332643 5.30299579,7.80787939 C5.2873441,7.78725073 5.27154334,7.76496576 5.26364296,7.75382327 C5.22906018,7.71738432 5.20714781,7.69675566 5.18672608,7.67130863 C5.17092532,7.65384202 5.15378299,7.63486968 5.13172156,7.61574676 C5.1192002,7.60159279 5.10816949,7.58563193 5.10026911,7.56967107 C5.09087809,7.55386078 5.07984738,7.53789992 5.06881666,7.52525169 C5.04839493,7.50146097 5.03423387,7.51109772 5.0296129,7.5141092 C5.01858218,7.52525169 5.01381214,7.54437461 5.0279732,7.5729837 C5.04362489,7.60460427 5.06881666,7.63968805 5.08461742,7.66016614 C5.08610805,7.66498451 5.09087809,7.66980289 5.09236873,7.67130863 C5.09713877,7.68245112 5.10339945,7.69193729 5.10816949,7.70307978 C5.1175605,7.71738432 5.12695152,7.73319461 5.1348519,7.74915547 C5.1615343,7.78243236 5.18985641,7.80787939 5.21191785,7.83483217 L5.23860026,7.86193552 C5.25425195,7.88090786 5.2700527,7.90003078 5.28257406,7.91900313 C5.29673511,7.94113753 5.31089617,7.96342251 5.3296782,7.98405117 C5.33921828,7.99052586 5.34547895,8.00001203 5.35486997,8.01115452 C5.36113065,8.02214643 5.37067073,8.03328892 5.38006174,8.04593715 L5.42403554,8.0905071 C5.44758761,8.11580356 5.47427002,8.13959428 5.49633146,8.16037351 C5.51362285,8.1761838 5.53404458,8.19681246 5.55446631,8.21744112 C5.60157045,8.27450873 5.65508433,8.33338323 5.6975675,8.3889451 C5.72261021,8.42071625 5.76658401,8.44435639 5.79654582,8.46664137 C5.83261924,8.4920884 5.85468068,8.53018366 5.87987245,8.56195481 C5.90014512,8.58574553 5.94262828,8.62218448 5.95991967,8.64928783 C6.00866352,8.71117381 6.0432463,8.74761276 6.10764184,8.79218271 C6.14535496,8.82229754 6.17531677,8.84608826 6.20676922,8.88749616 C6.22391155,8.90963056 6.27891607,8.96519243 6.3009775,8.98898314 C6.35285168,9.05734381 6.37640375,9.12224128 6.36850338,9.12224128 C6.33242995,9.13187803 6.24433328,9.05252544 6.19260817,9.02075429 C6.1484853,8.9921452 6.14222462,8.98100271 6.10302086,8.94938214 C6.09199014,8.93974539 6.02908525,8.8936697 6.00717288,8.86671692 C5.98973242,8.84925032 5.94262828,8.80001257 5.92697659,8.77953448 C5.85468068,8.68572678 5.82799827,8.67940266 5.74303194,8.59854433 C5.68012704,8.53665835 5.60634049,8.48260223 5.5450753,8.42538404 C5.5277839,8.40957376 5.50885281,8.3889451 5.49156142,8.36982218 C5.47427002,8.34919352 5.44907825,8.3300706 5.43193592,8.31275457 C5.40197411,8.27616505 5.36590069,8.20780438 5.33280854,8.18100218 C5.29673511,8.15389883 5.27154334,8.13176442 5.23696055,8.10149902 C5.2227995,8.0951749 5.21191785,8.07921404 5.20088713,8.06822213 C5.18195604,8.05707964 5.1615343,8.04126935 5.14901295,8.02214643 C5.10816949,7.97290868 5.06881666,7.91900313 5.0279732,7.86660332 C5.0106818,7.83965054 4.98086906,7.81887131 4.96357766,7.79357485 C4.9227342,7.73801298 4.88964205,7.67928906 4.84879859,7.62372719 C4.79215437,7.54904241 4.71210714,7.49513685 4.65397228,7.42045207 C4.6004584,7.34426154 4.56438498,7.25376647 4.5125108,7.17441388 C4.49044936,7.13797494 4.45437594,7.11087159 4.42918417,7.08075675 C4.41353248,7.06012809 4.40712274,7.03784312 4.39311074,7.01570871 C4.36478864,6.97445139 4.33333619,6.92988144 4.30188374,6.88711838 C4.26581031,6.83471857 4.24061854,6.77117627 4.20290542,6.71410866 C4.19664474,6.70462249 4.18248369,6.66953871 4.16355259,6.63776756 C4.13850988,6.60765273 4.11793909,6.57603215 4.09289638,6.53477483 C4.06934431,6.49487268 4.05518326,6.4679199 4.03789186,6.43780507 C4.01747013,6.40919598 4.00643941,6.3822432 3.99227836,6.36161454 C3.98124764,6.34249162 3.95456523,6.30605268 3.94517422,6.29009181 C3.90895173,6.23934832 3.90105135,6.21239554 3.86497793,6.16150148 C3.84306556,6.1345487 3.81936442,6.10925224 3.80207303,6.11723267 C3.78642134,6.12822459 3.79104231,6.14569119 3.79581235,6.15999574 C3.80848277,6.20290937 3.80848277,6.19658526 3.8272648,6.22820583 C3.85558691,6.2790999 3.86497793,6.30439636 3.89643038,6.35047205 C3.90895173,6.37426277 3.9341435,6.42666258 3.95456523,6.45692799 C3.97498697,6.48553708 3.99227836,6.51715765 4.00643941,6.54245411 C4.01896077,6.56955746 4.0410222,6.63475608 4.06457427,6.66155828 C4.08022596,6.6806812 4.10079676,6.72359483 4.11331811,6.75205335 C4.14477056,6.81092785 4.18084398,6.85850929 4.21229643,6.90458498 C4.23271816,6.94268024 4.2531399,6.98393757 4.27207099,7.02037651 C4.31291445,7.08391881 4.3616583,7.13948068 4.40250176,7.20302297 L4.47479767,7.33628111 C4.49834974,7.37287063 4.53293253,7.40313604 4.5548449,7.4412313 C4.58480671,7.48399437 4.6004584,7.53323212 4.62878051,7.57599518 C4.64920224,7.6125847 4.68065469,7.64285011 4.70271612,7.67928906 C4.74355959,7.73801298 4.77963301,7.79357485 4.81898584,7.84913672 C4.84253791,7.88090786 4.87086002,7.90469858 4.89277239,7.93646973 C4.9227342,7.97923279 4.94777691,8.02681423 4.98086906,8.06340375 C5.01858218,8.09999327 5.0279732,8.12227825 5.05942565,8.15555514 C5.10652979,8.21111701 5.21340848,8.36982218 5.19760773,8.36982218 C5.13172156,8.37780261 5.00755146,8.23490773 4.95090725,8.18416423 C4.91170348,8.14290691 4.86608998,8.1126415 4.83776787,8.07454624 C4.79692441,8.01582232 4.76547196,7.95228002 4.72462849,7.89837447 C4.7089768,7.87774581 4.68214533,7.86193552 4.66962398,7.84115629 C4.63981123,7.80471734 4.61312882,7.76496576 4.58003667,7.73018313 C4.56587562,7.71738432 4.55022392,7.70774758 4.53919321,7.69193729 C4.48731903,7.62372719 4.44498493,7.55386078 4.39311074,7.48399437 C4.37417965,7.45704159 4.34585754,7.43159456 4.32707551,7.40313604 C4.31127475,7.38250738 4.30188374,7.3602224 4.28623205,7.33477537 C4.26894065,7.30300422 4.24061854,7.27288939 4.22168745,7.24111824 C4.20603576,7.21883326 4.19664474,7.1935368 4.18084398,7.17441388 C4.15565221,7.13165082 4.11793909,7.09656704 4.09125668,7.05380398 C4.07083495,7.02037651 4.06621397,6.97761345 4.04415254,6.94102393 C3.98750832,6.85685297 3.92460342,6.76801421 3.8712386,6.6806812 C3.85871725,6.65839622 3.85081687,6.63475608 3.83829552,6.60930904 C3.79581235,6.53944263 3.75347825,6.46475784 3.70786475,6.39338569 C3.69206399,6.36793866 3.68580332,6.33782382 3.66687222,6.31388253 C3.64809019,6.2790999 3.61663774,6.25681492 3.59785571,6.22504377 C3.58056432,6.19974731 3.57266394,6.17580602 3.56014259,6.14885325 C3.54434183,6.11226373 3.52242946,6.07431904 3.50349837,6.04254789 C3.49246765,6.01875717 3.48620697,5.99647219 3.47204592,5.97584353 C3.42181144,5.89317832 3.37619794,5.80433956 3.33371477,5.71068243 C3.30867207,5.66144468 3.27557992,5.61868161 3.25351848,5.56944386 C3.22847578,5.51704405 3.203284,5.45832013 3.17973193,5.40742606 C3.16557088,5.37249285 3.15140982,5.33605391 3.14365851,5.3011207 C3.1169761,5.24239677 3.07598357,5.19466476 3.05094087,5.13594084 C3.03350041,5.09950189 3.02410939,5.06140663 3.0084577,5.02797916 C2.99742698,5.00900682 2.98013559,4.99154022 2.9644839,5.00117696 C2.95196254,5.00900682 2.95032284,5.02481711 2.95971386,5.05658826 C2.97536555,5.11847424 3.006818,5.18367285 3.02261876,5.21845548 C3.0540712,5.28515984 3.06659256,5.35668257 3.09804501,5.42338692 C3.11384576,5.45982587 3.13888847,5.49641539 3.15454016,5.53451065 L3.24114619,5.72498697 C3.25679788,5.75826386 3.27095894,5.79485339 3.29123161,5.82662453 C3.29928105,5.84725319 3.31642338,5.86788186 3.32432376,5.88534846 C3.34325485,5.93142415 3.34951553,5.97418722 3.36680692,6.01710085 C3.39035899,6.06001449 3.42330208,6.09645344 3.43910283,6.13936707 C3.54270213,6.35378469 3.64495985,6.56473909 3.76912995,6.75687172 C3.80207303,6.81092785 3.81936442,6.87748163 3.85394721,6.93153776 C3.89166034,6.98860536 3.93891354,7.02835694 3.97498697,7.08557513 C4.00166937,7.13165082 4.01120945,7.1935368 4.03476152,7.24111824 C4.07709562,7.31414671 4.12747917,7.37753843 4.17145297,7.44273705 C4.18248369,7.46336571 4.18561402,7.48399437 4.19813538,7.50146097 C4.21378707,7.52841375 4.2374882,7.55702284 4.2531399,7.58397561 C4.27520133,7.62056513 4.28623205,7.66016614 4.31127475,7.69193729 C4.33795716,7.72837624 4.37417965,7.75864164 4.39773172,7.79357485 C4.43231451,7.83965054 4.45437594,7.89205035 4.48731903,7.93481342 C4.5108711,7.96658456 4.54545388,7.98871897 4.56900595,8.02064069 C4.60686814,8.06972787 4.73729891,8.2397261 4.77501204,8.29046959 C4.83001656,8.36199232 4.93212521,8.47145974 4.98086906,8.56662261 C4.99503011,8.59854433 5.04526459,8.66509812 5.03423387,8.67940266 C5.00755146,8.70003132 4.88025103,8.55879275 4.8581896,8.53665835 C4.80631542,8.48410797 4.75921128,8.41424156 4.71359778,8.35551763 C4.70107642,8.34136366 4.57690633,8.2222595 4.56587562,8.20780438 C4.5548449,8.19199409 4.54396325,8.17452749 4.53293253,8.15555514 C4.49671004,8.10631739 4.47628831,8.04593715 4.44021489,7.99519366 C4.42441413,7.97772705 4.40250176,7.96191677 4.38685007,7.94113753 C4.3600186,7.90319284 4.33959686,7.8602792 4.31291445,7.8206782 C4.26894065,7.7618037 4.21229643,7.71106021 4.16981327,7.64751791 C4.11957879,7.58397561 4.08648664,7.50627934 4.0393825,7.43791867 C4.01433979,7.40614752 3.98601768,7.37919475 3.96395625,7.34426154 C3.95143489,7.32845125 3.94830456,7.31264097 3.93891354,7.29668011 C3.91998245,7.27123307 3.89643038,7.23946192 3.88539966,7.20934709 C3.8712386,7.18224374 3.86184759,7.15845302 3.8461959,7.13315656 C3.79730299,7.05380398 3.74557788,6.96963302 3.69683403,6.88862412 C3.6747726,6.85534723 3.66061155,6.81408991 3.63869918,6.77750039 C3.60247669,6.72043278 3.55060251,6.66953871 3.51452908,6.60765273 C3.46742494,6.53778631 3.44536351,6.45376593 3.40138971,6.3822432 C3.37157696,6.33616751 3.33535447,6.29340445 3.30867207,6.24732875 C3.27557992,6.19658526 3.25992822,6.13771076 3.23324581,6.08531095 C3.20641434,6.03938583 3.17034092,5.99481588 3.14827949,5.94889076 C3.12472741,5.89634037 3.10907572,5.84725319 3.08552365,5.79485339 C3.0713626,5.76790061 3.05094087,5.73929152 3.03991015,5.71068243 C3.02410939,5.6758998 3.01948842,5.63931027 3.00368766,5.60437707 C2.96135356,5.5074073 2.89367862,5.41540649 2.84970482,5.32024362 C2.81512204,5.25037721 2.78679993,5.17734874 2.76175722,5.10432027 C2.7490868,5.06456869 2.74118642,5.02481711 2.72240439,4.98837816 C2.68305156,4.90104514 2.63445679,4.8057317 2.59346426,4.71523662 C2.57781257,4.66916093 2.56052117,4.62007375 2.54486948,4.57565437 C2.54322978,4.56134983 2.54009944,4.54704528 2.53383877,4.53439705 C2.51490767,4.49313973 2.4929953,4.45338815 2.47719455,4.41198026 C2.45990315,4.36289308 2.44425146,4.31531164 2.4284507,4.26441757 C2.36718551,4.10887446 2.30905065,3.93255212 2.25091579,3.76917915 C2.24465512,3.73891374 2.24152478,3.70398053 2.23049406,3.67220938 C2.20217195,3.588189 2.1707195,3.50236173 2.14090676,3.41834134 C2.12361536,3.37542771 2.0827719,3.39123799 2.09380262,3.43415163 C2.10468427,3.49121924 2.11422435,3.5071801 2.12048503,3.55159948 C2.12525506,3.57704651 2.12987604,3.59767517 2.13464608,3.61996015 C2.14090676,3.64841867 2.15670751,3.67868407 2.16445883,3.70398053 C2.18011052,3.7548746 2.18175022,3.80245604 2.19904161,3.8533501 C2.22259368,3.91839814 2.24614575,3.98660824 2.26969782,4.05496891 C2.27610757,4.08658949 2.28236824,4.12152269 2.28862892,4.15811221 C2.30115027,4.18973279 2.31218099,4.22481657 2.32321171,4.25342566 C2.35615479,4.33910236 2.39073758,4.41845495 2.41905969,4.50413164 C2.4300904,4.55186366 2.44425146,4.59944509 2.45677281,4.65033916 C2.47093387,4.67714136 2.4913556,4.70424471 2.49925598,4.73119749 C2.51177733,4.75182615 2.51341703,4.77561686 2.52280805,4.80091332 C2.54486948,4.85346371 2.56529121,4.91068189 2.58720358,4.96458744 C2.60762531,5.00900682 2.63445679,5.05508251 2.65159912,5.10432027 C2.65949949,5.12494893 2.65949949,5.14557759 2.66739987,5.16786256 C2.71763435,5.31226319 2.77576921,5.46298793 2.83554377,5.59790238 C2.85134452,5.63283558 2.8559655,5.66626305 2.87012655,5.702702 C2.88279697,5.73131109 2.901579,5.75826386 2.91260972,5.78852927 C2.9188704,5.80599587 2.92513107,5.82496822 2.93303145,5.84559688 C2.95196254,5.88369214 2.98177529,5.91711961 3.00204796,5.95521487 C3.05556184,6.0663386 3.10117534,6.17264397 3.16557088,6.26795741 C3.22847578,6.35378469 3.25351848,6.47424402 3.29928105,6.58069995 C3.32268406,6.62828139 3.34951553,6.67119502 3.37783764,6.71410866 C3.39184963,6.73624306 3.40138971,6.76485216 3.41227136,6.78713713 C3.44059347,6.84104268 3.45639423,6.88862412 3.49574705,6.93635613 C3.52242946,6.97761345 3.51915006,6.98860536 3.54270213,7.04266149 C3.54911187,7.05847178 3.57728492,7.1632714 3.57102424,7.1632714 C3.56163323,7.16959551 3.51124968,7.13797494 3.49574705,7.1171957 C3.47055528,7.09189924 3.43433279,7.05847178 3.40914102,7.00140417 C3.39661967,6.96963302 3.37157696,6.92190101 3.35890654,6.89509881 C3.3274541,6.8252324 3.27095894,6.76801421 3.23324581,6.70462249 C3.20805404,6.66953871 3.19702333,6.62511933 3.17660159,6.58551833 C3.14365851,6.51233928 3.10430568,6.43780507 3.0697229,6.36161454 C3.05556184,6.33149971 3.03350041,6.30289062 3.01471838,6.27262521 C2.99742698,6.24582301 2.98803597,6.21239554 2.96761424,6.18213014 C2.92990111,6.11873841 2.88279697,6.048872 2.85134452,5.97900559 C2.82779245,5.92660578 2.81512204,5.87420597 2.79156996,5.82496822 C2.78530929,5.80915793 2.77114823,5.79319707 2.76175722,5.77738678 C2.74595646,5.75193975 2.73969578,5.72498697 2.72404409,5.69487214 C2.7067527,5.65512056 2.68156093,5.61868161 2.6611392,5.57742429 C2.62491671,5.49792113 2.60300434,5.41691223 2.56678185,5.34087228 C2.54949046,5.3011207 2.51967771,5.26934955 2.50402602,5.23441634 C2.48032488,5.17885448 2.47570391,5.10898806 2.44589116,5.05026414 C2.38134656,4.89622677 2.30278997,4.7375216 2.24152478,4.57249232 C2.2336244,4.54538897 2.23049406,4.51376839 2.22259368,4.48666504 C2.19755098,4.41378715 2.16445883,4.34858853 2.13613672,4.28022786 C2.12525506,4.24860729 2.12361536,4.22150394 2.11422435,4.18973279 C2.09693295,4.14064561 2.07338088,4.08975154 2.05608949,4.04382642 C2.05131945,4.02786556 2.04967975,4.00889322 2.04341907,3.99293236 C2.02463704,3.95016929 2.01196663,3.89611317 1.99154489,3.85018805 C1.98051418,3.82624675 1.96173215,3.80079972 1.95383177,3.77550326 C1.93504974,3.72792183 1.93981978,3.67220938 1.92565872,3.62462795 C1.90210665,3.55807417 1.87527518,3.48655144 1.85008341,3.42300914 C1.83920176,3.38506445 1.83607142,3.34847493 1.82027066,3.31037967 C1.80461897,3.26596029 1.78881821,3.21672254 1.77316652,3.17546521 C1.75587513,3.1277332 1.75736576,3.08331383 1.74171407,3.03407607 C1.73381369,2.99763713 1.718162,2.95788555 1.70400095,2.92777071 C1.68208858,2.86106636 1.6725485,2.79270569 1.65063613,2.73398176 C1.64899643,2.72615191 1.64422639,2.7133531 1.63960541,2.70236119 C1.63319567,2.68474401 1.62067432,2.66893372 1.60502263,2.6737521 C1.58773123,2.68007621 1.58773123,2.70537267 1.58773123,2.72133353 C1.59235221,2.76575291 1.6096436,2.80866655 1.62380466,2.84841813 C1.63647507,2.88651339 1.64586609,2.92927645 1.6552571,2.96752229 C1.66151778,2.99432449 1.66002714,3.01977153 1.66628782,3.04687488 C1.67567884,3.08497014 1.68834925,3.11990335 1.69923091,3.15799861 C1.70877099,3.1912755 1.70400095,3.23087651 1.71190132,3.25797986 C1.73545339,3.33733244 1.7604961,3.42782751 1.78732757,3.50236173 C1.79835829,3.54211331 1.80148863,3.588189 1.81251935,3.61996015 C1.82817104,3.66272321 1.84069239,3.70398053 1.85485345,3.7420758 C1.86752386,3.77866532 1.8706542,3.80727441 1.88317556,3.83889498 C1.89897631,3.87548451 1.91775834,3.9087614 1.92878906,3.94851298 C1.94131041,3.99624499 1.94131041,4.04533216 1.95696211,4.08975154 C1.98692392,4.16759839 2.019867,4.2374648 2.04505877,4.31199901 C2.05444979,4.33744604 2.05608949,4.36605514 2.06548051,4.39315849 C2.08903258,4.45489389 2.10468427,4.52325456 2.12525506,4.58664629 C2.15983785,4.6739793 2.20217195,4.76296863 2.23049406,4.85180739 C2.26507685,4.93914041 2.26969782,5.04394003 2.30428061,5.12494893 C2.32321171,5.16620625 2.36092483,5.19165328 2.37821622,5.22974855 C2.39237728,5.25655075 2.38760724,5.2836541 2.39699826,5.31542524 C2.40653833,5.34885271 2.42219003,5.38047328 2.43322074,5.41224443 C2.44112112,5.44235927 2.4490215,5.46931204 2.45677281,5.49641539 C2.47093387,5.52969228 2.49612564,5.56146343 2.50715636,5.59323458 C2.53070843,5.64548381 2.54486948,5.702702 2.57319159,5.74727195 C2.59346426,5.78220516 2.62342607,5.81548205 2.6438478,5.85673937 C2.66426953,5.899653 2.67053021,5.94723444 2.6878216,5.99165382 C2.71763435,6.05835817 2.75534748,6.12024416 2.77740891,6.19176688 C2.80096098,6.25199655 2.80886136,6.32035722 2.84031381,6.37426277 C2.86699622,6.43148095 2.90619998,6.48056813 2.93765243,6.53477483 C2.95509288,6.57603215 2.97223521,6.61412742 2.99116631,6.65839622 C3.006818,6.68700531 3.03514011,6.71877646 3.05556184,6.75205335 C3.07598357,6.79180493 3.10117534,6.83622431 3.11846674,6.87748163 C3.13411843,6.9109091 3.13888847,6.94102393 3.15454016,6.96963302 C3.18286227,7.01089034 3.203284,7.04747986 3.22996641,7.09024293 C3.25351848,7.12683245 3.28034996,7.1760702 3.29764135,7.21883326 C3.3118024,7.25542278 3.32432376,7.28869967 3.34325485,7.31881451 C3.36516722,7.3474236 3.39184963,7.37603269 3.40914102,7.40464178 C3.42807212,7.43641293 3.45162419,7.54121255 3.44059347,7.54437461 C3.42181144,7.55220446 3.35890654,7.49348054 3.34012451,7.47285188 C3.29287131,7.40930958 3.2661889,7.329957 3.22370574,7.26656527 C3.17511096,7.19669886 3.14514915,7.15845302 3.10907572,7.07910044 C3.08701429,7.03317532 3.05094087,6.95216642 3.02261876,6.90925278 C2.99742698,6.87130809 2.9644839,6.83622431 2.9455528,6.79331067 C2.92990111,6.76003378 2.9205101,6.7156144 2.90619998,6.6806812 C2.88279697,6.6299377 2.83554377,6.59666081 2.8119917,6.54742306 C2.78217895,6.48854856 2.77114823,6.42666258 2.74118642,6.36959497 C2.72866507,6.34580425 2.70824334,6.31568942 2.69721262,6.28708033 C2.68156093,6.25199655 2.67216991,6.21871966 2.65636916,6.18378645 C2.62342607,6.11226373 2.57319159,6.0535398 2.54322978,5.9806619 C2.50715636,5.90763344 2.48822526,5.83129233 2.45051214,5.75510181 C2.43322074,5.71866286 2.40176829,5.68207334 2.38298626,5.64081601 C2.35615479,5.58841621 2.34527314,5.53451065 2.31859073,5.4806051 C2.30428061,5.44883395 2.28236824,5.41691223 2.26656749,5.38529166 C2.24614575,5.34087228 2.23824538,5.28847247 2.21797271,5.24074046 C2.16758917,5.13127304 2.12048503,5.02180562 2.07174118,4.91218763 C2.05444979,4.86942457 2.04967975,4.82801667 2.02940708,4.78359729 C2.01360633,4.74700777 1.99318459,4.71373088 1.9758932,4.6739793 C1.93504974,4.57866586 1.91924898,4.46603638 1.87691488,4.37087351 C1.85485345,4.32148518 1.82966168,4.27556006 1.80938901,4.22481657 C1.7810669,4.14064561 1.76690584,4.05647465 1.73858373,3.97245427 C1.69297023,3.84386393 1.6552571,3.70729316 1.6096436,3.5835212 C1.59712225,3.54211331 1.59399191,3.5071801 1.58147056,3.46757909 C1.5673095,3.42933326 1.55478815,3.39123799 1.54047803,3.35479904 C1.53108701,3.32618995 1.52482634,3.28011426 1.51543532,3.242019 C1.48234317,3.13255158 1.44940009,3.0245899 1.4131776,2.91512248 C1.40691692,2.88801913 1.40378658,2.84359976 1.39439557,2.80716081 C1.39126523,2.7896942 1.37859481,2.76575291 1.37546447,2.74994262 C1.36607346,2.72615191 1.36607346,2.70537267 1.35981278,2.67857047 C1.33000003,2.59906731 1.3095783,2.50541018 1.28274683,2.4260576 C1.27812585,2.40226688 1.27648615,2.36567736 1.26709514,2.33556252 C1.23102171,2.22443879 1.21358125,2.08470596 1.17124715,1.98005692 C1.16185614,1.960934 1.14918572,1.94015477 1.12876399,1.94497314 C1.10834226,1.94979151 1.1131123,1.97207649 1.11460293,1.98954309 C1.12086361,2.04344864 1.13979471,2.08636228 1.14918572,2.13078166 C1.15231606,2.14824826 1.15231606,2.17520104 1.15231606,2.19733544 C1.1570861,2.21811467 1.16021644,2.24356171 1.16647711,2.26102831 C1.18689885,2.32923841 1.20896028,2.40859099 1.22938201,2.47680109 C1.23564269,2.50857224 1.23102171,2.55796056 1.23877303,2.59424894 C1.26709514,2.70070487 1.28751687,2.82929521 1.32836033,2.92777071 C1.36607346,3.01344741 1.37233413,3.11990335 1.39439557,3.21506622 C1.40378658,3.25466723 1.40691692,3.29607512 1.41004726,3.33898876 C1.41794764,3.37693345 1.44000907,3.40719885 1.45253042,3.44047574 C1.46192144,3.46592278 1.46192144,3.48655144 1.46982182,3.51034216 C1.48875291,3.57870283 1.5044046,3.64841867 1.53108701,3.71677934 C1.54688777,3.76436077 1.57193048,3.81043647 1.58773123,3.8580179 C1.59712225,3.87714082 1.59235221,3.89611317 1.59861289,3.91839814 C1.6096436,3.96597958 1.61918368,4.01356102 1.63483537,4.06114245 C1.66628782,4.15344441 1.69774027,4.25643714 1.73068336,4.34858853 C1.74961445,4.40249408 1.75423543,4.45338815 1.77316652,4.50413164 C1.84546243,4.70424471 1.92237932,4.90751983 1.99318459,5.10748232 C2.00734565,5.15039596 2.0182273,5.19466476 2.02940708,5.2375784 C2.04505877,5.2836541 2.07174118,5.32491142 2.09216292,5.36300668 C2.11735469,5.41691223 2.12048503,5.47096836 2.14090676,5.52653022 C2.16445883,5.58841621 2.19591128,5.63931027 2.21797271,5.70752037 C2.22885436,5.73929152 2.24152478,5.77422473 2.25568583,5.80599587 C2.26656749,5.83129233 2.28862892,5.85357731 2.30115027,5.87420597 C2.31695103,5.91546329 2.32008137,5.9678631 2.3405031,6.00595836 C2.35928513,6.04721569 2.39237728,6.07748109 2.41443871,6.11723267 C2.43799078,6.15050956 2.43948142,6.1934232 2.45677281,6.23452995 C2.48658556,6.29491019 2.51967771,6.35047205 2.54636012,6.41717641 C2.55888147,6.44427976 2.56529121,6.46957622 2.57632193,6.49487268 C2.58720358,6.52348177 2.61239535,6.55374718 2.62491671,6.58386201 C2.62491671,6.58386201 2.62804705,6.58386201 2.62804705,6.58551833 C2.62968675,6.59184244 2.62968675,6.59666081 2.63281709,6.60283435 C2.63445679,6.6171389 2.63907776,6.63294919 2.6438478,6.64424225 C2.65010848,6.66155828 2.67053021,6.69182369 2.67679089,6.7028156 C2.68156093,6.70929029 2.69572198,6.72525115 2.7067527,6.73940512 C2.71301338,6.74587981 2.71763435,6.75205335 2.72240439,6.76003378 C2.7490868,6.79978536 2.7507265,6.86167134 2.77263887,6.90609072 C2.79320967,6.95216642 2.83092279,6.98860536 2.85447486,7.03317532 C2.87012655,7.06961426 2.87802693,7.15845302 2.85909584,7.16010934 C2.76950853,7.16010934 2.76175722,7.03317532 2.73343511,6.9679767 C2.7067527,6.91407115 2.67216991,6.87130809 2.6438478,6.82041402 C2.63907776,6.81092785 2.62968675,6.79180493 2.62342607,6.77117627 C2.61701633,6.75521541 2.60926502,6.73624306 2.60300434,6.72043278 C2.59197362,6.69664206 2.59197362,6.6981478 2.58571295,6.68233751 C2.57632193,6.66637665 2.55113016,6.63475608 2.54322978,6.6171389 L2.54322978,6.61412742 C2.50715636,6.56007129 2.48345522,6.48056813 2.45677281,6.44247287 C2.44425146,6.42033847 2.42532037,6.39970981 2.41279901,6.3775754 C2.39073758,6.34249162 2.37821622,6.29972856 2.36092483,6.25681492 C2.34363344,6.22338746 2.31695103,6.18694851 2.30115027,6.15050956 C2.28072854,6.10593961 2.2775982,6.048872 2.25717647,6.00279631 C2.24614575,5.97900559 2.22572402,5.95355856 2.21484237,5.93142415 C2.1912903,5.87736803 2.17548954,5.82180616 2.14880713,5.77106267 C2.13613672,5.74561563 2.11884532,5.72333066 2.10468427,5.6980342 C2.08590224,5.65512056 2.07338088,5.60919544 2.05131945,5.5662818 C2.00421531,5.48211085 1.95383177,5.38845371 1.91462801,5.29795864 C1.89256657,5.24239677 1.88317556,5.18834065 1.85962349,5.13594084 C1.84069239,5.09152146 1.81400998,5.04559634 1.79358825,5.00418845 C1.7810669,4.97557935 1.77629686,4.94712084 1.76526614,4.917006 C1.74648411,4.8646062 1.72442268,4.81220639 1.70400095,4.76131232 C1.69297023,4.72954117 1.68357921,4.65033916 1.67567884,4.61856801 C1.66002714,4.58197849 1.64109605,4.54057059 1.62544436,4.50413164 C1.60174322,4.44856978 1.59235221,4.38999643 1.5673095,4.33277825 C1.55001811,4.29152092 1.52959638,4.24378891 1.51230498,4.20102585 C1.49814393,4.16293059 1.49650423,4.12950312 1.48085253,4.09306417 C1.46982182,4.06761714 1.45253042,4.03584599 1.44463005,4.00889322 C1.43061805,3.97712207 1.42420831,3.92306594 1.4131776,3.88015231 C1.39752591,3.83257087 1.37710417,3.78664575 1.36294312,3.73891374 C1.3519124,3.70398053 1.3519124,3.62146589 1.34088169,3.60083723 C1.29228691,3.45493086 1.2466734,3.29607512 1.19956926,3.14836186 C1.18212881,3.08331383 1.17124715,3.01344741 1.15082542,2.94689363 C1.14456475,2.91979028 1.14456475,2.88651339 1.13666437,2.85941004 C1.12399395,2.8183033 1.10521192,2.77207703 1.0941812,2.73247602 C1.08628082,2.70070487 1.08165985,2.67059004 1.07539917,2.64198095 C1.06749879,2.61186612 1.05169804,2.57858923 1.04081638,2.54832382 C1.01249427,2.4609908 0.99833322,2.36567736 0.973141449,2.28165697 C0.962110732,2.24356171 0.962110732,2.19733544 0.954359418,2.16405855 C0.919776631,2.05775319 0.910385616,1.93548697 0.882063506,1.81969543 C0.875802829,1.78777371 0.867902451,1.75615314 0.861641774,1.72438199 C0.808127893,1.51643907 0.783085185,1.2813928 0.723310627,1.07977399 C0.712279911,1.04167872 0.724950328,0.994097289 0.718540587,0.951334226 C0.704379533,0.905258532 0.691858179,0.862344895 0.677697124,0.821087573 C0.671436447,0.798802597 0.671436447,0.782841736 0.666666407,0.762363649 C0.655784755,0.725774127 0.639983999,0.698821352 0.624332306,0.703639725 C0.602270873,0.713125897 0.605401212,0.733754558 0.605401212,0.762363649 C0.60853155,0.809945085 0.61330159,0.846534607 0.624332306,0.884629871 C0.629102346,0.919412503 0.625822944,0.943203221 0.633723322,0.973468628 C0.652505352,1.03701093 0.66040573,1.12901174 0.668306108,1.18773566 C0.672927084,1.2131827 0.671436447,1.24495385 0.676057423,1.27506868 C0.682467163,1.30367777 0.704379533,1.34659141 0.712279911,1.37670624 C0.718540587,1.42112562 0.718540587,1.4783438 0.723310627,1.52276318 C0.731211005,1.56251476 0.742092658,1.60061002 0.754763075,1.63870529 C0.762663453,1.67032586 0.754763075,1.70209701 0.765793792,1.73236242 C0.773545106,1.76413357 0.792476201,1.79259208 0.797097176,1.82436323 C0.803357853,1.86562055 0.797097176,1.91967668 0.804997554,1.95144783 C0.850611058,2.13710577 0.863132411,2.35152338 0.918285994,2.53085721 C0.924397607,2.55796056 0.924397607,2.58325702 0.930658284,2.60704774 C0.976420851,2.76108511 1.00936394,2.92927645 1.05646808,3.08331383 C1.06123812,3.1055988 1.06123812,3.13089526 1.06749879,3.15799861 C1.08315049,3.21190416 1.0941812,3.27062809 1.10521192,3.32618995 C1.1131123,3.34998067 1.1131123,3.37226565 1.11773327,3.39605637 C1.13353403,3.45493086 1.1554464,3.50883642 1.17288685,3.56590402 C1.18063817,3.59300737 1.18212881,3.61679809 1.18689885,3.64540718 C1.19166889,3.66754159 1.2026996,3.6913323 1.20896028,3.71030465 C1.21835129,3.74373211 1.21522096,3.77550326 1.22461197,3.80245604 C1.23102171,3.82157896 1.2466734,3.83889498 1.25129438,3.85967422 C1.25770412,3.89129479 1.2623251,3.92306594 1.27186518,3.95649341 C1.28274683,3.99624499 1.30331762,4.03434025 1.32045995,4.07243551 C1.33313037,4.10420666 1.33313037,4.13582724 1.34401202,4.16759839 C1.36771316,4.22481657 1.39126523,4.28670255 1.41004726,4.34392073 C1.42897835,4.39150217 1.43061805,4.43908361 1.44940009,4.48832136 C1.4604308,4.51843619 1.47295216,4.55186366 1.48398287,4.5836348 C1.49188325,4.60893126 1.49650423,4.63121624 1.5044046,4.65816902 C1.51379562,4.68195973 1.53898739,4.720055 1.55478815,4.74866409 C1.5656698,4.78359729 1.56104882,4.82801667 1.57193048,4.8646062 C1.58296119,4.90270146 1.60338292,4.93131055 1.61754398,4.96458744 C1.6285747,5.00117696 1.6285747,5.03445385 1.63647507,5.0708928 C1.64586609,5.09950189 1.66464812,5.12494893 1.67567884,5.15039596 C1.68670955,5.17885448 1.69774027,5.21062563 1.70877099,5.2375784 C1.71503166,5.25835764 1.73381369,5.27883572 1.74171407,5.29961496 C1.75587513,5.33289185 1.77003618,5.3693308 1.78255754,5.40592032 C1.80461897,5.45350175 1.80774931,5.51870037 1.823401,5.57576798 C1.82817104,5.59157826 1.8250407,5.63283558 1.81400998,5.63599764 C1.79194855,5.63931027 1.76526614,5.60272075 1.74961445,5.58058635 C1.72442268,5.54399683 1.69774027,5.49792113 1.67731854,5.45199601 C1.6709088,5.43452941 1.66628782,5.41871912 1.66151778,5.40110194 C1.64899643,5.36300668 1.63483537,5.32024362 1.61754398,5.27883572 C1.60815296,5.25655075 1.59235221,5.22974855 1.58296119,5.20430151 C1.57043984,5.16786256 1.57670052,5.12329261 1.56253946,5.09152146 C1.55165781,5.06456869 1.52959638,5.04394003 1.51543532,5.01698725 C1.50753494,4.99154022 1.5044046,4.96458744 1.49337389,4.94230246 C1.48085253,4.91218763 1.46505178,4.88523486 1.44626975,4.85813151 C1.43523903,4.83117873 1.43523903,4.80422596 1.42584802,4.76944332 C1.4148173,4.7328538 1.40378658,4.69460796 1.38813489,4.66133107 C1.37233413,4.62489212 1.35042176,4.59146466 1.33462101,4.55186366 C1.32836033,4.53439705 1.32359029,4.51376839 1.31732962,4.49313973 C1.3079386,4.46603638 1.29377754,4.43426523 1.28274683,4.41198026 C1.27812585,4.38999643 1.27335581,4.36921719 1.2656045,4.34858853 C1.25129438,4.31832313 1.23564269,4.28670255 1.22461197,4.25342566 C1.21522096,4.22632231 1.21358125,4.19936954 1.2026996,4.17241676 C1.18689885,4.12634107 1.17288685,4.07394126 1.1570861,4.02786556 C1.14605538,3.99142661 1.14456475,3.95649341 1.13353403,3.9215602 C1.11937297,3.88015231 1.10208158,3.83889498 1.08792053,3.79778824 C1.07539917,3.76436077 1.07226883,3.72626551 1.06272875,3.69449436 C1.04707706,3.64841867 1.02501563,3.60881766 1.00936394,3.56108565 C0.999823857,3.52314096 0.999823857,3.48655144 0.99356318,3.45161823 C0.966880772,3.36428522 0.938558662,3.26912234 0.910385616,3.18013301 C0.882063506,3.08015177 0.877293466,2.96586598 0.847480719,2.86573416 C0.828549625,2.79601832 0.804997554,2.72765765 0.783085185,2.65794181 C0.773545106,2.61984655 0.773545106,2.58476277 0.765793792,2.54832382 C0.745222996,2.47213329 0.718540587,2.36567736 0.691858179,2.28481903 C0.677697124,2.24039965 0.680827462,2.1958297 0.668306108,2.14824826 C0.655784755,2.10217257 0.652505352,2.0466107 0.639983999,1.99586721 C0.629102346,1.96409606 0.619562267,1.94497314 0.61330159,1.90371582 C0.603910574,1.86562055 0.605401212,1.81803912 0.599140535,1.78777371 C0.592879858,1.75615314 0.541005678,1.58148711 0.536235638,1.54971596 C0.531614662,1.51960112 0.531614662,1.45756457 0.528484324,1.44024854 C0.525353986,1.42428768 0.498522513,1.34659141 0.497031876,1.33063055 C0.492261836,1.31000189 0.492261836,1.28771691 0.482870821,1.24645959 C0.476610144,1.20685858 0.454548711,1.12268763 0.449778671,1.09724059 C0.445157696,1.07360045 0.445157696,1.02105006 0.440387656,0.998915662 C0.43576668,0.970306571 0.419965924,0.914744704 0.408935208,0.873487383 C0.394774153,0.824249631 0.40744457,0.770193506 0.391643814,0.722762644 C0.382252799,0.686173122 0.368091744,0.654251399 0.35557039,0.619468767 C0.349309713,0.590859675 0.339918698,0.552764412 0.339918698,0.533792067 C0.335148658,0.509850775 0.335148658,0.452783166 0.333508957,0.432003932 C0.333508957,0.403545414 0.320987603,0.35746972 0.317857265,0.314706657 C0.314726926,0.260650532 0.302056509,0.19876455 0.292665494,0.165337086 C0.287895454,0.144858999 0.289535155,0.119411965 0.286404817,0.101945362 C0.270604061,0.0480398113 0.256592069,-0.00451057225 0.226630258,0.000307801021 C0.207848228,0.00181354267 0.19994785,0.0177744041 0.209338865,0.0558696678 C0.220369582,0.097126989 0.22349992,0.130403879 0.234530636,0.174823258 C0.243921652,0.197258809 0.243921652,0.252670101 0.245561353,0.27179302 C0.245561353,0.303413595 0.247201054,0.308231968 0.25182203,0.336841059 C0.25182203,0.347983548 0.256592069,0.378098381 0.258082707,0.39074661 C0.262852746,0.409869529 0.270604061,0.436972879 0.270604061,0.452783166 L0.270604061,0.517831205 C0.270604061,0.533792067 0.270604061,0.538459866 0.273883463,0.5639069 C0.281634777,0.58920336 0.283274478,0.590859675 0.286404817,0.613144652 C0.287895454,0.632116997 0.286404817,0.6495836 0.286404817,0.663888145 C0.286404817,0.68286049 0.289535155,0.698821352 0.294156131,0.719450012 C0.305335911,0.756039534 0.330378619,0.808288769 0.320987603,0.860839153 C0.309956887,0.919412503 0.325608579,0.973468628 0.339918698,1.02105006 C0.346179375,1.05447753 0.339918698,1.08941074 0.346179375,1.11786925 L0.377631823,1.25127796 C0.387022838,1.29087897 0.382252799,1.32265012 0.391643814,1.35607758 C0.404314232,1.40531533 0.438897019,1.47201969 0.440387656,1.49114261 C0.445157696,1.51478275 0.442027357,1.57365725 0.449778671,1.61160194 C0.456039348,1.64819146 0.465579427,1.6911051 0.467219128,1.71640156 C0.470349467,1.73703022 0.467219128,1.74967845 0.470349467,1.76563931 C0.471840104,1.78310591 0.497031876,1.86727687 0.500162214,1.88956185 C0.504932254,1.91335256 0.503292553,1.92434448 0.508062592,1.94662946 C0.512683568,1.96876386 0.531614662,2.05925893 0.534745001,2.08952434 C0.539365977,2.11813343 0.536235638,2.13710577 0.541005678,2.16405855 C0.552036394,2.21179056 0.570818425,2.24822951 0.578718803,2.29114314 C0.586619181,2.32442003 0.583339779,2.34354295 0.588109818,2.37049573 C0.597649898,2.41024731 0.610171251,2.44668626 0.617922566,2.48478152 C0.624332306,2.51489635 0.624332306,2.54516176 0.629102346,2.57362028 C0.6416237,2.63881889 0.651014715,2.70537267 0.668306108,2.77057129 C0.680827462,2.80866655 0.702888895,2.8451055 0.713919612,2.88169502 C0.723310627,2.91512248 0.724950328,2.94990512 0.734341343,2.98333258 C0.742092658,3.01344741 0.762663453,3.04040019 0.770414768,3.07367708 C0.776675445,3.09611263 0.773545106,3.12457115 0.778315146,3.15318024 C0.787706161,3.18329507 0.801867216,3.21190416 0.804997554,3.24683737 C0.812897932,3.26912234 0.808127893,3.29125675 0.812897932,3.31670378 C0.82079831,3.34365656 0.834810302,3.36744727 0.841220042,3.39289431 C0.847480719,3.42782751 0.847480719,3.46441704 0.856871735,3.49453187 C0.86626275,3.53413288 0.882063506,3.57222814 0.89458486,3.60881766 C0.907106214,3.64209455 0.902485238,3.67868407 0.908745915,3.7152736 C0.930658284,3.79447561 0.957489756,3.88180862 0.984172165,3.95483709 C0.996693519,3.99293236 0.99356318,4.03584599 1.0045939,4.07860906 C1.01562461,4.1057124 1.02978567,4.12634107 1.04081638,4.15163752 C1.0502074,4.17708456 1.04394672,4.20569365 1.0502074,4.232797 C1.06272875,4.28354049 1.07062913,4.34693222 1.08792053,4.39315849 C1.10372128,4.44540772 1.13502467,4.49148341 1.1554464,4.54057059 C1.17288685,4.59462672 1.17601719,4.65033916 1.19166889,4.70424471 C1.20896028,4.75182615 1.23102171,4.79940758 1.24980374,4.83900859 C1.2656045,4.88041648 1.26083446,4.93131055 1.27648615,4.97091156 C1.28915657,5.01698725 1.32045995,5.05026414 1.33939105,5.09633984 C1.36145248,5.14708333 1.37233413,5.19948314 1.38813489,5.25188295 C1.39290493,5.27416792 1.39752591,5.29479658 1.40229594,5.32024362 C1.42271768,5.38529166 1.45730046,5.44235927 1.48085253,5.50590156 C1.48875291,5.53767271 1.49188325,5.56146343 1.49963456,5.58841621 C1.51543532,5.63599764 1.53585705,5.68207334 1.55627878,5.72980535 C1.57506081,5.76790061 1.59861289,5.80599587 1.61754398,5.84725319 C1.63483537,5.88369214 1.63647507,5.92178741 1.6552571,5.96003324 C1.66628782,5.99647219 1.68357921,6.03772951 1.69923091,6.07431904 C1.70877099,6.09810975 1.70877099,6.11873841 1.71965264,6.14403487 C1.7621358,6.24582301 1.81878002,6.34731 1.86588416,6.44894756 C1.89256657,6.50285311 1.90359729,6.56323335 1.92878906,6.61879522 C1.94921079,6.66472034 1.97276286,6.70462249 1.99318459,6.75205335 C2.00421531,6.78231876 2.00883629,6.81092785 2.02299734,6.83938637 C2.04654941,6.89329192 2.0827719,6.94900436 2.10781461,7.00622254 C2.11422435,7.01721446 2.13300638,7.07593838 2.12361536,7.09987967 C2.12361536,7.10138541 2.12048503,7.10620379 2.11884532,7.10620379 C2.10319363,7.11087159 2.06712021,7.08391881 2.04967975,7.06494647 C1.98364452,6.99989843 1.97276286,6.87748163 1.9302797,6.79331067 C1.91775834,6.77117627 1.90210665,6.74422349 1.88779653,6.71877646 C1.88153586,6.70130986 1.87840552,6.68549957 1.8706542,6.66953871 C1.84069239,6.61412742 1.80774931,6.56805172 1.78255754,6.50767148 C1.76526614,6.4679199 1.7604961,6.42033847 1.74484441,6.3822432 C1.66777846,6.2202254 1.58296119,6.06483286 1.51379562,5.90447138 C1.48085253,5.83129233 1.47295216,5.74561563 1.44626975,5.66626305 C1.42897835,5.62018735 1.39916561,5.58058635 1.38172515,5.53767271 C1.36607346,5.50273951 1.36294312,5.46464424 1.34565173,5.43136735 C1.32359029,5.38363534 1.29377754,5.34237802 1.27812585,5.28997821 C1.26709514,5.25835764 1.2623251,5.22493017 1.24980374,5.19466476 C1.23564269,5.1565695 1.21045092,5.12796041 1.19628986,5.09633984 C1.17601719,5.04394003 1.17124715,4.99319653 1.15231606,4.93432203 C1.14456475,4.90586352 1.13353403,4.87093031 1.12086361,4.84232122 C1.1131123,4.81687419 1.10998196,4.78992141 1.10208158,4.76296863 C1.08165985,4.70093208 1.04558642,4.64702653 1.02039465,4.58664629 C1.0045939,4.54388322 1.00936394,4.49148341 0.99356318,4.45007552 C0.977911488,4.41679863 0.951229079,4.38999643 0.935428323,4.35491265 C0.92290697,4.31832313 0.935428323,4.27390375 0.924397607,4.23114068 C0.913515954,4.18973279 0.897715198,4.15163752 0.883703207,4.11369284 C0.877293466,4.08658949 0.875802829,4.06294934 0.86626275,4.04066437 C0.847480719,3.98826456 0.830189326,3.9390268 0.812897932,3.89129479 C0.804997554,3.86449259 0.804997554,3.84205704 0.793966838,3.81676058 C0.781445484,3.78980781 0.757893414,3.76270446 0.746862697,3.72792183 C0.734341343,3.68018981 0.731211005,3.62944632 0.720180289,3.57870283 C0.699758557,3.51832259 0.677697124,3.46592278 0.66040573,3.4040368 C0.652505352,3.38506445 0.652505352,3.36594153 0.649375014,3.34531287 C0.633723322,3.28975101 0.625822944,3.22786502 0.61330159,3.17546521 C0.605401212,3.14836186 0.60853155,3.12457115 0.602270873,3.09927469 C0.586619181,3.04838062 0.567688087,2.99432449 0.552036394,2.94689363 C0.544136016,2.91346617 0.541005678,2.88169502 0.534745001,2.85158019 C0.512683568,2.76906554 0.487491797,2.6737521 0.462449089,2.59590525 C0.457679049,2.57211454 0.460809388,2.55299162 0.451418372,2.52935147 C0.43576668,2.46731492 0.408935208,2.39112439 0.394774153,2.32923841 C0.388513476,2.29114314 0.388513476,2.25455362 0.37912246,2.22127673 C0.371222082,2.17670678 0.35557039,2.13710577 0.346179375,2.09419214 C0.344539674,2.07356348 0.346179375,2.05775319 0.346179375,2.04344864 C0.341409335,2.01483955 0.339918698,1.98472472 0.335148658,1.960934 C0.30846625,1.84664821 0.262852746,1.71173376 0.240791313,1.59895371 C0.229760597,1.55769639 0.229760597,1.51643907 0.225139621,1.4783438 C0.220369582,1.4480784 0.218878944,1.41645782 0.209338865,1.38784873 C0.19994785,1.35758332 0.187426496,1.32897423 0.182656456,1.29735366 C0.178035481,1.24977222 0.176395779,1.20219078 0.168495401,1.15611509 C0.168495401,1.15129672 0.168495401,1.1496404 0.1668557,1.1449726 C0.160595023,1.08941074 0.130782276,0.970306571 0.124521599,0.924230876 C0.115130584,0.86866901 0.108720843,0.814763459 0.102460166,0.757545276 C0.102460166,0.722762644 0.0947088521,0.686173122 0.0915785136,0.648077858 C0.0820384345,0.590859675 0.0678773796,0.538459866 0.0632564038,0.479735942 C0.0601260653,0.438478621 0.0616167027,0.403545414 0.0569957269,0.371774266 C0.0553560258,0.347983548 0.0522256873,0.313050341 0.0255432786,0.313050341 C-0.0011391302,0.313050341 0.00348184561,0.343315748 9.71680128e-05,0.368612208 C-0.0011391302,0.427336132 0.00974252253,0.506688717 0.0145125621,0.543278239 C0.0239035775,0.611488336 0.0160031994,0.679698433 0.0239035775,0.749564845 C0.028673617,0.789316425 0.0411949708,0.82891743 0.0459650104,0.86400121 C0.0553560258,0.930554991 0.0616167027,0.998915662 0.0678773796,1.06080164 L0.0678773796,1.0639637 C0.071007718,1.09573485 0.0726474191,1.12268763 0.0789080961,1.15129672 C0.0789080961,1.15445877 0.0789080961,1.15611509 0.0820384345,1.15912657 L0.0820384345,1.16394495 L0.0820384345,1.16876332 C0.0868084741,1.18141155 0.0884481752,1.1957161 0.093069151,1.20685858 C0.0993298279,1.2306493 0.0978391905,1.25127796 0.104099867,1.27823074 C0.124521599,1.35607758 0.119900623,1.44024854 0.140173292,1.51478275 C0.168495401,1.62590648 0.184296157,1.74501065 0.218878944,1.8577907 C0.226630258,1.88790553 0.218878944,1.92118242 0.226630258,1.95611563 C0.239300676,1.98954309 0.247201054,2.0244763 0.254952368,2.05775319 C0.262852746,2.10066683 0.256592069,2.14342989 0.267473722,2.18468721 C0.277013801,2.22443879 0.289535155,2.26419037 0.29892617,2.30228563 C0.313087225,2.3450487 0.313087225,2.39278071 0.325608579,2.44201846 C0.339918698,2.49276195 0.35557039,2.5466675 0.363321704,2.59424894 C0.375992122,2.65312344 0.37912246,2.71817148 0.391643814,2.77523908 C0.399544192,2.82778947 0.42935694,2.88651339 0.440387656,2.94207526 C0.440387656,2.95788555 0.440387656,2.97700847 0.442027357,2.99763713 C0.449778671,3.03558182 0.460809388,3.07698971 0.470349467,3.11192292 C0.473479805,3.13089526 0.471840104,3.14369407 0.478100781,3.16417215 C0.497031876,3.2373512 0.518944245,3.32618995 0.539365977,3.39605637 C0.545626654,3.41668503 0.547266355,3.43897 0.552036394,3.45959866 C0.567688087,3.50883642 0.581849142,3.54693168 0.588109818,3.57222814 C0.592879858,3.59767517 0.597649898,3.62628426 0.602270873,3.65323704 C0.61330159,3.6913323 0.625822944,3.72310345 0.630592983,3.7595424 C0.63685366,3.78664575 0.6416237,3.81043647 0.649375014,3.83738924 C0.657275392,3.86916039 0.671436447,3.89776948 0.683957801,3.92939006 C0.704379533,3.99293236 0.709149572,4.06294934 0.729571304,4.12634107 C0.742092658,4.16293059 0.761023752,4.19936954 0.773545106,4.2374648 C0.783085185,4.27556006 0.787706161,4.31832313 0.798736877,4.35958045 C0.817667972,4.421617 0.841220042,4.49313973 0.863132411,4.55502571 C0.891454521,4.62955992 0.907106214,4.71373088 0.930658284,4.78043524 C0.941838064,4.81055007 0.940198363,4.83750285 0.949589378,4.86942457 C0.971650811,4.93748409 0.99356318,5.01698725 1.01562461,5.08670309 C1.02814597,5.12494893 1.02814597,5.16138787 1.04394672,5.1979774 C1.06749879,5.25655075 1.10208158,5.30910113 1.12399395,5.36782505 C1.14143441,5.42173061 1.14605538,5.47096836 1.16647711,5.52186242 C1.19166889,5.58691046 1.21984193,5.65045276 1.2466734,5.7201686 C1.2623251,5.76790061 1.27022547,5.81548205 1.28751687,5.86155774 C1.30331762,5.89634037 1.32522999,5.93774827 1.34401202,5.97418722 C1.35668244,6.00761468 1.3708435,6.04254789 1.37859481,6.07582478 C1.38813489,6.10127181 1.4148173,6.14569119 1.43523903,6.1806244 C1.45566076,6.22820583 1.4604308,6.27744358 1.47608249,6.32668134 C1.5044046,6.4043776 1.54047803,6.48388076 1.57193048,6.55374718 C1.58609153,6.58069995 1.58773123,6.60614699 1.59861289,6.63776756 C1.61754398,6.68700531 1.65063613,6.72525115 1.6709088,6.77117627 C1.69147959,6.81559565 1.69774027,6.86332766 1.71503166,6.90609072 C1.74484441,6.96963302 1.76690584,7.00622254 1.76526614,7.09656704 C1.76526614,7.10304173 1.7621358,7.11087159 1.75423543,7.1125279 C1.73858373,7.11885202 1.71965264,7.09189924 1.70877099,7.08391881 C1.66002714,7.03317532 1.6552571,6.99026168 1.62380466,6.92190101 C1.57670052,6.82041402 1.51856566,6.72826263 1.47131245,6.6299377 C1.45103979,6.58069995 1.44000907,6.52348177 1.4148173,6.47273828 C1.40229594,6.44096713 1.38172515,6.40603392 1.36771316,6.37426277 C1.34401202,6.32984339 1.33313037,6.28211138 1.3095783,6.24085406 C1.27812585,6.17746234 1.24980374,6.10759593 1.22312133,6.04254789 C1.21045092,6.0139388 1.21045092,5.99014808 1.19956926,5.9678631 C1.18689885,5.93940458 1.17124715,5.91546329 1.1570861,5.88851052 C1.14143441,5.84725319 1.13040369,5.79485339 1.1131123,5.75193975 C1.07688981,5.67258716 1.03604635,5.58691046 1.00310326,5.50273951 C0.977911488,5.42338692 0.962110732,5.35186419 0.933788622,5.26784381 C0.92290697,5.2375784 0.907106214,5.19948314 0.897715198,5.16786256 C0.886833545,5.13594084 0.886833545,5.11215012 0.877293466,5.08369161 C0.850611058,5.01216888 0.817667972,4.93432203 0.787706161,4.86761768 C0.772054469,4.83283505 0.767284429,4.79940758 0.754763075,4.76296863 C0.738962319,4.720055 0.720180289,4.66916093 0.704379533,4.62489212 C0.683957801,4.570836 0.682467163,4.50413164 0.66040573,4.44058935 C0.614792227,4.31531164 0.555166733,4.17874087 0.515813906,4.04066437 C0.50955323,4.00889322 0.512683568,3.97712207 0.503292553,3.94535092 C0.48123112,3.87714082 0.457679049,3.80079972 0.438897019,3.72792183 C0.413705247,3.64841867 0.418326223,3.56274197 0.391643814,3.48173307 C0.360191366,3.38024608 0.325608579,3.27544646 0.292665494,3.17546521 C0.283274478,3.14203775 0.287895454,3.11192292 0.278504439,3.08015177 C0.256592069,2.99914287 0.229760597,2.90864779 0.203078188,2.83561932 C0.188917133,2.80068612 0.188917133,2.76108511 0.176395779,2.72765765 C0.160595023,2.68474401 0.119900623,2.70070487 0.121391261,2.74843688 C0.124521599,2.7896942 0.140173292,2.84359976 0.144943331,2.86422842 C0.149713371,2.89599956 0.149713371,2.92460866 0.155974048,2.95472349 C0.1668557,3.00877961 0.184296157,3.05636105 0.19994785,3.10394249 C0.215748606,3.15799861 0.215748606,3.20241799 0.231400298,3.25797986 C0.240791313,3.28177057 0.25182203,3.31354172 0.256592069,3.33898876 C0.273883463,3.39123799 0.273883463,3.44845618 0.292665494,3.49453187 C0.305335911,3.53413288 0.317857265,3.57870283 0.328738918,3.61996015 C0.336639296,3.64841867 0.335148658,3.67220938 0.344539674,3.69615068 C0.35557039,3.74373211 0.371222082,3.79447561 0.387022838,3.83889498 C0.394774153,3.86916039 0.391643814,3.89295111 0.397904491,3.91839814 C0.408935208,3.95649341 0.418326223,3.99624499 0.42935694,4.02952188 C0.438897019,4.06596083 0.438897019,4.11369284 0.446648333,4.15013178 C0.470349467,4.21683614 0.493901537,4.28670255 0.515813906,4.34858853 C0.539365977,4.41679863 0.541005678,4.49148341 0.567688087,4.56134983 C0.61330159,4.68828385 0.652505352,4.83283505 0.699758557,4.95811275 C0.712279911,4.99154022 0.707509871,5.02481711 0.718540587,5.05990089 C0.731211005,5.11380644 0.742092658,5.16786256 0.761023752,5.22026237 C0.772054469,5.24555883 0.787706161,5.27251161 0.798736877,5.29795864 C0.812897932,5.32807347 0.814537633,5.35833888 0.830189326,5.39161577 C0.841220042,5.41691223 0.856871735,5.44401558 0.86626275,5.46931204 C0.882063506,5.51071994 0.877293466,5.55995769 0.893094222,5.59639664 C0.903975875,5.62816779 0.919776631,5.65993893 0.930658284,5.69171008 C0.944968403,5.72649271 0.944968403,5.76308224 0.957489756,5.79485339 C0.971650811,5.82496822 0.992072543,5.85357731 1.00310326,5.87902434 C1.01562461,5.90763344 1.01875495,5.93624253 1.02978567,5.96470104 C1.04081638,5.99481588 1.05646808,6.0267376 1.07062913,6.05534669 C1.08315049,6.08531095 1.08628082,6.12024416 1.09895124,6.15532794 C1.10998196,6.18213014 1.13040369,6.21239554 1.14143441,6.24085406 C1.15231606,6.27262521 1.15231606,6.30921473 1.16647711,6.34249162 C1.18376851,6.39338569 1.21358125,6.4329867 1.23564269,6.48388076 C1.24980374,6.51565191 1.25129438,6.55525292 1.26709514,6.59018612 C1.28587717,6.63294919 1.3095783,6.67435708 1.32836033,6.71245235 C1.3519124,6.76650847 1.37546447,6.82357608 1.39439557,6.87281383 C1.43523903,6.96496522 1.45103979,7.06494647 1.48875291,7.15544154 C1.5233357,7.21883326 1.56104882,7.28553762 1.59235221,7.3474236 C1.60815296,7.38401312 1.612923,7.42210838 1.63006533,7.45854733 C1.65063613,7.49980465 1.68044888,7.53172638 1.69774027,7.5729837 C1.71339196,7.6125847 1.72442268,7.65067997 1.74022343,7.69028097 C1.7621358,7.7396693 1.79671859,7.78725073 1.81878002,7.83332643 C1.83130138,7.86193552 1.83920176,7.89205035 1.85008341,7.91584107 C1.87527518,7.97290868 1.91775834,8.01582232 1.93981978,8.0730405 C1.95383177,8.10631739 1.96650219,8.14290691 1.97738384,8.17934586 C2.00734565,8.23490773 2.04654941,8.28580179 2.07651122,8.34136366 C2.09693295,8.38728878 2.10945431,8.43020242 2.13300638,8.47145974 C2.17235921,8.53183998 2.19755098,8.5730973 2.23511504,8.6366396 C2.26030681,8.67473486 2.29339896,8.73662084 2.31218099,8.77622185 C2.33111208,8.82229754 2.36554581,8.85557443 2.3861166,8.89848807 C2.403408,8.93974539 2.4300904,8.98416477 2.45215184,9.02557267 C2.48032488,9.07149779 2.50402602,9.10326893 2.53070843,9.14286994 C2.57781257,9.21273635 2.60449498,9.28742114 2.65010848,9.35894387 C2.68156093,9.40637473 2.71450401,9.45576305 2.7507265,9.50168817 C2.84031381,9.62561071 2.96761424,9.85117081 3.02410939,9.92721076 C3.0697229,9.98593469 3.10743602,10.0604689 3.14827949,10.1209997 C3.18137163,10.1715926 3.22370574,10.220981 3.25679788,10.2638946 C3.28661063,10.3051519 3.30867207,10.3447529 3.33535447,10.3860102 L3.36054625,10.4161251 C4.5141505,11.8958174 5.70069784,12.8784644 6.70494023,13.5215667 L6.70180989,13.5215667 C7.23456368,13.8564436 7.52046793,13.9532628 7.52046793,13.9532628 C7.58650316,13.9833776 7.53790838,14.0309591 7.50645594,14.053244 L1.55165781,17.8999622 C1.53421735,17.9109541 1.48711321,17.9443816 1.5044046,17.9839826 C1.52020536,18.0125917 1.58147056,17.9951251 1.59712225,17.9903067 C6.37476405,16.2964979 9.84183749,14.9041386 11.961971,13.8880642 C14.1104266,12.85633 14.8317461,12.2671333 14.7563198,11.97517 M2.04028874,6.2837677 C2.02940708,6.26148272 2.0182273,6.23618626 2.00883629,6.21390129 C1.99795463,6.18694851 1.99795463,6.15999574 1.98692392,6.13771076 C1.94921079,6.05037774 1.90836733,5.95837693 1.86752386,5.87420597 C1.85172311,5.84092908 1.83130138,5.77422473 1.84546243,5.73131109 C1.84695307,5.72498697 1.86111412,5.72980535 1.86588416,5.73131109 C1.87840552,5.74561563 1.88779653,5.75193975 1.89897631,5.76639487 C1.90836733,5.77738678 1.90985797,5.79003501 1.91775834,5.80433956 C1.93504974,5.83294865 1.96009245,5.86306348 1.9758932,5.89317832 C2.00734565,5.96304473 2.01360633,6.03772951 2.04505877,6.10593961 C2.06548051,6.14885325 2.09842359,6.18694851 2.12048503,6.23136789 C2.12987604,6.25530918 2.13613672,6.2790999 2.1456768,6.30605268 C2.15029777,6.32668134 2.14880713,6.35047205 2.15029777,6.36628234 C2.15029777,6.38856732 2.14880713,6.4043776 2.13926706,6.4043776 C2.0827719,6.40121555 2.06548051,6.32668134 2.04028874,6.2837677 M2.29175926,8.12860237 C2.28862892,8.13643222 2.28549858,8.14290691 2.27297723,8.14290691 C2.21007233,8.13959428 2.1912903,8.04593715 2.16445883,8.00001203 C2.13926706,7.96658456 2.12048503,7.9238215 2.09842359,7.88873772 C2.0811322,7.86193552 2.05921983,7.83483217 2.04505877,7.80787939 C2.02776738,7.76978413 2.02299734,7.73018313 1.99944527,7.6982614 C1.98841455,7.6807948 1.96799282,7.66498451 1.95696211,7.64751791 C1.92401902,7.60159279 1.89256657,7.55220446 1.86752386,7.49348054 C1.86275383,7.46968982 1.85962349,7.45071748 1.85172311,7.42677618 C1.84069239,7.39199355 1.8250407,7.35224197 1.81251935,7.31414671 C1.80774931,7.29351805 1.80297927,7.25692853 1.80774931,7.2442803 C1.80938901,7.23795618 1.81251935,7.23313781 1.81714032,7.23479412 C1.86275383,7.2442803 1.9129883,7.36338446 1.93504974,7.40464178 C1.96173215,7.45222322 2.00257561,7.48881274 2.02776738,7.53789992 C2.04505877,7.58397561 2.05131945,7.63788116 2.07651122,7.6807948 C2.09380262,7.71256595 2.12361536,7.7396693 2.1440371,7.77144045 C2.1707195,7.80938514 2.18815996,7.864947 2.21007233,7.90786064 C2.23049406,7.95875471 2.26507685,7.99835571 2.28549858,8.04759347 C2.29339896,8.06972787 2.29801993,8.10631739 2.29175926,8.12860237 M3.62930816,7.85546083 C3.60098605,7.85064246 3.5851853,7.83332643 3.56640326,7.81887131 C3.51765942,7.78243236 3.47681596,7.7222027 3.47517626,7.63788116 C3.47517626,7.62688925 3.47681596,7.62372719 3.48307664,7.62372719 C3.54270213,7.62372719 3.60411639,7.71422226 3.62766846,7.75864164 C3.6324385,7.77445193 3.64809019,7.80787939 3.64495985,7.83016437 C3.64495985,7.84597466 3.63869918,7.85229877 3.62930816,7.85546083 M4.02999148,7.87142169 C3.99063866,7.88406992 3.89643038,7.77445193 3.86974797,7.73018313 C3.81787379,7.65549834 3.76912995,7.5729837 3.71412543,7.49980465 C3.66538159,7.42993824 3.6118677,7.38401312 3.59785571,7.26972733 C3.59785571,7.25542278 3.5884647,7.21883326 3.59785571,7.21883326 C3.65122053,7.22365164 3.70309471,7.31881451 3.72828648,7.35690977 C3.74870821,7.38401312 3.77062058,7.40930958 3.79104231,7.43641293 C3.81310375,7.47767025 3.8272648,7.526908 3.85394721,7.56500327 C3.88703936,7.6125847 3.92773376,7.65384202 3.96395625,7.70157403 C3.98288734,7.72687049 4.00807911,7.74915547 4.01896077,7.78243236 C4.02686115,7.80155528 4.04415254,7.864947 4.02999148,7.87142169 M5.43506626,8.65711768 C5.38006174,8.6634418 5.31253587,8.57942142 5.2857044,8.53816409 C5.27631338,8.52702161 5.24486093,8.46031725 5.25425195,8.45083108 C5.26528266,8.43968859 5.3296782,8.46197357 5.34860929,8.47627811 C5.39094339,8.51121132 5.42716588,8.55879275 5.44907825,8.64281314 C5.44907825,8.65395563 5.4398363,8.65711768 5.43506626,8.65711768" id="Fill-1"></path>
                    <path d="M37.5879651,16.6486909 L33.7060472,8.48711945 L29.8445512,16.6486909 C29.2693142,17.7647466 28.6296817,17.7901937 28.6296817,17.7901937 L28.5746772,17.8504233 L31.2150432,17.8504233 L31.1521383,17.7901937 C31.1521383,17.7901937 30.4150181,17.642631 30.8833763,16.6486909 L31.574883,15.2087502 L34.8830545,15.2087502 L35.5526488,16.6486909 C36.0210071,17.642631 35.2838869,17.7901937 35.2838869,17.7901937 L35.225752,17.8504233 L38.86246,17.8504233 L38.7995551,17.7901937 C38.7995551,17.7901937 38.1301099,17.7853753 37.5879651,16.6486909 L37.5879651,16.6486909 Z M31.9380023,14.450007 L33.3004448,11.5574772 L34.5421457,14.450007 L31.9380023,14.450007 Z M25.2240225,17.0091655 C23.3239071,17.0091655 22.0146803,15.7502149 22.0146803,13.4562175 C22.0146803,11.1605637 23.2876846,9.66506114 25.2931881,9.66506114 C27.3723291,9.66506114 28.1221197,11.2986403 28.1221197,11.2986403 L28.1738448,11.3415539 L28.1738448,9.40953679 C28.1738448,9.40953679 26.9275229,8.79519419 25.1500869,8.79519419 C21.9471544,8.79519419 19.9353902,10.7922593 19.9353902,13.46736 C19.9353902,15.6216245 21.5950659,17.9997929 25.0227865,17.9997929 C26.3130822,17.9997929 27.8186259,17.4837752 27.8186259,17.4837752 L28.5117723,15.0913023 L28.4347064,15.1437021 C28.4347064,15.1437021 27.3125545,17.0091655 25.2240225,17.0091655 L25.2240225,17.0091655 Z M71.6292033,8.93808908 L71.6921082,8.996813 C71.6921082,8.996813 72.4700718,9.21890989 71.8821644,10.1429835 C71.5962602,10.5938026 70.7270695,11.8495911 69.9350939,13.0656281 C69.1381992,11.8495911 68.2833187,10.5858222 67.9939859,10.1366594 C67.409507,9.2095743 68.1920916,8.996813 68.1920916,8.996813 L68.2518662,8.93808908 L64.6135185,8.93808908 L64.6716534,8.996813 C64.6716534,8.996813 65.1981465,9.08730807 65.8881625,10.1366594 C66.1788368,10.5811544 67.6545678,12.6640468 68.4498228,13.8815895 L68.4498228,16.6535093 C68.4498228,17.7060227 67.8604248,17.7965178 67.8604248,17.7965178 L67.7991596,17.8552417 L70.9581183,17.8552417 L70.8952134,17.7965178 C70.8952134,17.7965178 70.3074551,17.7060227 70.3074551,16.6535093 C70.3074551,16.2090143 70.3028342,15.0961207 70.3028342,13.8815895 C71.0980892,12.6640468 72.5753108,10.5891348 72.8692645,10.1429835 C73.5528708,9.09363219 74.3370951,8.996813 74.3370951,8.996813 L74.4,8.93808908 L71.6292033,8.93808908 Z M65.3977429,16.6486909 L61.515825,8.48711945 L57.654329,16.6486909 C57.0792411,17.7647466 56.4425898,17.7901937 56.4425898,17.7901937 L56.3813246,17.8504233 L59.0185603,17.8504233 L58.9634067,17.7901937 C58.9634067,17.7901937 58.2264356,17.642631 58.6916635,16.6486909 L59.3863005,15.2087502 L62.6946211,15.2087502 L63.3624266,16.6486909 C63.8355549,17.642631 63.0953044,17.7901937 63.0953044,17.7901937 L63.0356789,17.8504233 L66.6722378,17.8504233 L66.6093329,17.7901937 C66.6093329,17.7901937 65.9398877,17.7853753 65.3977429,16.6486909 L65.3977429,16.6486909 Z M59.7477801,14.450007 L61.1103717,11.5574772 L62.3535632,14.450007 L59.7477801,14.450007 Z M38.8515784,8.93808908 C37.8126041,8.93808908 37.665031,8.83645151 37.665031,8.83645151 L37.6601119,10.6129255 L37.7230168,10.5653441 C37.7230168,10.5653441 38.1976357,9.79862043 39.2349703,9.79862043 L40.7186016,9.79862043 L40.7186016,16.6535093 C40.7186016,17.7060227 40.1308433,17.7965178 40.1308433,17.7965178 L40.0662987,17.8552417 L43.2268971,17.8552417 L43.1656319,17.7965178 C43.1656319,17.7965178 42.5762339,17.7060227 42.5762339,16.6535093 L42.5856249,9.79862043 L44.0315432,9.79862043 C45.0734987,9.79862043 45.5733094,10.5653441 45.5733094,10.5653441 L45.633084,10.6129255 L45.6360652,8.83645151 C45.6360652,8.83645151 45.4884921,8.93808908 44.4480273,8.93808908 L38.8515784,8.93808908 Z M55.4241864,16.6535093 C55.4241864,15.6025016 55.4226958,11.1733626 55.4226958,10.1223549 C55.4226958,9.06984147 56.0120938,8.99515668 56.0120938,8.99515668 L56.0717193,8.93643276 L52.9142512,8.93643276 L52.9708954,8.99515668 C52.9708954,8.99515668 53.5617841,9.06984147 53.5617841,10.1223549 C53.5617841,11.1733626 53.5665541,12.6876869 53.5665541,12.6876869 L49.2243275,12.6876869 L49.2243275,10.1223549 C49.2243275,9.06984147 49.8183465,8.996813 49.8183465,8.996813 L49.8732019,8.93808908 L46.7173736,8.93808908 L46.7802785,8.996813 C46.7802785,8.996813 47.3696765,9.06984147 47.3696765,10.1223549 L47.3696765,16.6535093 C47.3696765,17.7060227 46.7802785,17.7965178 46.7802785,17.7965178 L46.7173736,17.8552417 L49.8732019,17.8552417 L49.8183465,17.7965178 C49.8183465,17.7965178 49.2243275,17.7060227 49.2243275,16.6535093 L49.2243275,13.5610171 L53.5665541,13.5610171 L53.5665541,16.6535093 C53.5665541,17.7060227 52.9804355,17.7965178 52.9804355,17.7965178 L52.9191703,17.8552417 L56.0764893,17.8552417 L56.0167148,17.7965178 C56.0167148,17.7965178 55.4241864,17.7060227 55.4241864,16.6535093 L55.4241864,16.6535093 Z" id="Fill-3"></path>
                </g>
            </g>
        </g>
    </g>
</svg>