<svg xmlns="http://www.w3.org/2000/svg" xmlns:xlink="http://www.w3.org/1999/xlink" width="500" zoomAndPan="magnify" viewBox="0 0 375 374.999991" height="500" preserveAspectRatio="xMidYMid meet" version="1.0"><defs><clipPath id="def69ae998"><path d="M 4 34.332031 L 371.433594 34.332031 L 371.433594 328.332031 L 4 328.332031 Z M 4 34.332031 " clip-rule="nonzero"/></clipPath><clipPath id="a2f0e44da2"><path d="M 4 183 L 351 183 L 351 328.332031 L 4 328.332031 Z M 4 183 " clip-rule="nonzero"/></clipPath><clipPath id="f9b0ca3fc0"><path d="M 123 155.253906 L 246.675781 155.253906 L 246.675781 279 L 123 279 Z M 123 155.253906 " clip-rule="nonzero"/></clipPath><clipPath id="115ade8915"><path d="M 61.425781 267 L 135 267 L 135 340.503906 L 61.425781 340.503906 Z M 61.425781 267 " clip-rule="nonzero"/></clipPath></defs><g clip-path="url(#def69ae998)"><path fill="#3b88c3" d="M 371.304688 32.832031 C 350.902344 63.433594 350.902344 22.632812 320.296875 53.230469 C 289.695312 32.832031 289.695312 83.832031 259.09375 53.230469 C 268.261719 80.761719 293.96875 99.886719 321.320312 103.476562 C 318.492188 121.726562 323.378906 143.726562 299.894531 165.421875 C 279.414062 184.363281 269.058594 168.605469 218.289062 134.832031 C 187.683594 114.472656 167.28125 94.03125 116.277344 104.230469 C 56.265625 116.238281 4.066406 165.421875 4.066406 185.820312 C 4.066406 206.222656 34.667969 328.304688 218.289062 328.304688 C 238.691406 328.304688 271.773438 321.53125 299.894531 298.023438 C 360.644531 247.246094 359.898438 141.460938 346.617188 99.570312 C 364.773438 88.074219 371.304688 57.242188 371.304688 32.832031 Z M 371.304688 32.832031 " fill-opacity="1" fill-rule="nonzero"/></g><g clip-path="url(#a2f0e44da2)"><path fill="#55acee" d="M 312.28125 285.902344 C 313.800781 284.222656 315.230469 282.457031 316.65625 280.691406 C 335.824219 256.710938 346.261719 226.132812 350.882812 196.132812 C 330.488281 247.101562 320.21875 298.023438 208.085938 298.023438 C 95.875 298.023438 55.070312 165.421875 4.066406 185.820312 C 4.066406 206.222656 34.667969 328.304688 218.289062 328.304688 C 238.691406 328.304688 271.773438 321.53125 299.894531 298.023438 C 303.140625 295.308594 306.140625 292.371094 309.066406 289.363281 C 310.160156 288.230469 311.230469 287.085938 312.28125 285.902344 Z M 312.28125 285.902344 " fill-opacity="1" fill-rule="nonzero"/></g><path fill="#292f33" d="M 85.675781 180.722656 C 85.675781 181.726562 85.578125 182.722656 85.378906 183.707031 C 85.183594 184.691406 84.894531 185.648438 84.511719 186.578125 C 84.125 187.503906 83.652344 188.386719 83.097656 189.222656 C 82.539062 190.058594 81.902344 190.828125 81.191406 191.539062 C 80.484375 192.25 79.710938 192.886719 78.875 193.441406 C 78.039062 194 77.15625 194.472656 76.230469 194.855469 C 75.300781 195.242188 74.34375 195.53125 73.359375 195.726562 C 72.371094 195.921875 71.378906 196.023438 70.375 196.023438 C 69.367188 196.023438 68.375 195.921875 67.386719 195.726562 C 66.402344 195.53125 65.445312 195.242188 64.515625 194.855469 C 63.589844 194.472656 62.707031 194 61.871094 193.441406 C 61.035156 192.886719 60.265625 192.25 59.554688 191.539062 C 58.84375 190.828125 58.207031 190.058594 57.652344 189.222656 C 57.09375 188.386719 56.621094 187.503906 56.238281 186.578125 C 55.851562 185.648438 55.5625 184.691406 55.367188 183.707031 C 55.167969 182.722656 55.070312 181.726562 55.070312 180.722656 C 55.070312 179.71875 55.167969 178.722656 55.367188 177.738281 C 55.5625 176.75 55.851562 175.792969 56.238281 174.867188 C 56.621094 173.9375 57.09375 173.058594 57.652344 172.222656 C 58.207031 171.386719 58.84375 170.613281 59.554688 169.902344 C 60.265625 169.191406 61.035156 168.558594 61.871094 168 C 62.707031 167.441406 63.589844 166.972656 64.515625 166.585938 C 65.445312 166.203125 66.402344 165.910156 67.386719 165.714844 C 68.375 165.519531 69.367188 165.421875 70.375 165.421875 C 71.378906 165.421875 72.371094 165.519531 73.359375 165.714844 C 74.34375 165.910156 75.300781 166.203125 76.230469 166.585938 C 77.15625 166.972656 78.039062 167.441406 78.875 168 C 79.710938 168.558594 80.484375 169.191406 81.191406 169.902344 C 81.902344 170.613281 82.539062 171.386719 83.097656 172.222656 C 83.652344 173.058594 84.125 173.9375 84.511719 174.867188 C 84.894531 175.792969 85.183594 176.75 85.378906 177.738281 C 85.578125 178.722656 85.675781 179.71875 85.675781 180.722656 Z M 85.675781 180.722656 " fill-opacity="1" fill-rule="nonzero"/><path fill="#ffbd1f" d="M 168.300781 201.277344 C 168.472656 201.296875 168.640625 201.304688 168.804688 201.304688 C 170.898438 201.304688 172.710938 199.734375 172.976562 197.605469 C 173.261719 195.277344 174.398438 192.25 175.570312 191.636719 C 176.171875 191.324219 177.382812 191.894531 177.875 192.15625 C 177.957031 192.199219 178.042969 192.242188 178.128906 192.277344 C 182.988281 194.4375 194.847656 198.914062 199.980469 193.757812 C 202.632812 191.097656 202.808594 187.136719 200.496094 181.988281 C 199.542969 179.863281 197.054688 178.917969 194.9375 179.867188 C 192.816406 180.820312 191.871094 183.308594 192.820312 185.425781 C 193.324219 186.550781 193.539062 187.304688 193.628906 187.777344 C 191.4375 187.988281 186.117188 186.605469 181.660156 184.644531 C 177.132812 182.308594 173.722656 183.113281 171.644531 184.203125 C 165.980469 187.1875 164.800781 195.078125 164.617188 196.628906 C 164.355469 198.929688 166.003906 201.003906 168.300781 201.277344 Z M 168.300781 201.277344 " fill-opacity="1" fill-rule="nonzero"/><path fill="#ffbd1f" d="M 184.214844 234.699219 C 182.179688 233.601562 179.625 234.355469 178.519531 236.402344 C 177.933594 237.484375 177.460938 238.113281 177.144531 238.472656 C 175.671875 236.867188 173.507812 231.800781 172.347656 227.070312 C 171.445312 222.050781 168.734375 219.832031 166.609375 218.851562 C 160.789062 216.171875 153.8125 220.035156 152.472656 220.839844 C 150.484375 222.027344 149.839844 224.597656 151.019531 226.589844 C 152.203125 228.582031 154.785156 229.242188 156.777344 228.0625 C 158.800781 226.875 161.898438 225.941406 163.09375 226.492188 C 163.707031 226.777344 163.992188 228.085938 164.085938 228.636719 C 164.101562 228.726562 164.121094 228.824219 164.140625 228.914062 C 165.382812 234.082031 169.054688 246.214844 176.261719 247.15625 C 176.589844 247.199219 176.917969 247.21875 177.238281 247.21875 C 180.554688 247.21875 183.472656 244.929688 185.921875 240.398438 C 187.019531 238.355469 186.261719 235.804688 184.214844 234.699219 Z M 184.214844 234.699219 " fill-opacity="1" fill-rule="nonzero"/><path fill="#ffbd1f" d="M 220.542969 219.546875 C 218.261719 219.164062 216.085938 220.710938 215.703125 223.003906 C 215.5 224.214844 215.261719 224.964844 215.074219 225.40625 C 213.164062 224.367188 209.476562 220.277344 206.84375 216.171875 C 204.367188 211.71875 201.082031 210.496094 198.746094 210.257812 C 192.363281 209.59375 187.027344 215.523438 186.019531 216.71875 C 184.523438 218.484375 184.746094 221.125 186.507812 222.628906 C 188.265625 224.128906 190.921875 223.914062 192.429688 222.15625 C 193.960938 220.375 196.597656 218.503906 197.894531 218.625 C 198.570312 218.695312 199.261719 219.839844 199.527344 220.332031 C 199.570312 220.414062 199.621094 220.496094 199.671875 220.574219 C 202.339844 224.773438 208.984375 234.046875 215.664062 234.046875 C 216.125 234.046875 216.585938 234 217.046875 233.910156 C 220.726562 233.164062 223.0625 229.960938 223.996094 224.390625 C 224.382812 222.097656 222.835938 219.929688 220.542969 219.546875 Z M 220.542969 219.546875 " fill-opacity="1" fill-rule="nonzero"/><g clip-path="url(#f9b0ca3fc0)"><path fill="#e4e9ea" d="M 185.105469 155.191406 C 151.238281 155.191406 123.683594 182.746094 123.683594 216.613281 C 123.683594 232.039062 129.410156 246.140625 138.835938 256.941406 L 131.675781 264.101562 C 130.03125 265.742188 130.03125 268.402344 131.675781 270.046875 C 132.496094 270.867188 133.570312 271.277344 134.648438 271.277344 C 135.726562 271.277344 136.800781 270.867188 137.621094 270.046875 L 144.78125 262.886719 C 155.578125 272.308594 169.683594 278.035156 185.105469 278.035156 C 218.972656 278.035156 246.527344 250.480469 246.527344 216.613281 C 246.527344 182.746094 218.976562 155.191406 185.105469 155.191406 Z M 185.105469 269.625 C 155.875 269.625 132.09375 245.84375 132.09375 216.617188 C 132.09375 187.386719 155.875 163.605469 185.105469 163.605469 C 214.335938 163.605469 238.117188 187.386719 238.117188 216.617188 C 238.117188 245.84375 214.335938 269.625 185.105469 269.625 Z M 185.105469 269.625 " fill-opacity="1" fill-rule="nonzero"/></g><g clip-path="url(#115ade8915)"><path fill="#14c4ed" d="M 116.441406 267.597656 C 111.714844 267.597656 107.273438 269.4375 103.9375 272.777344 L 66.546875 310.171875 C 63.207031 313.507812 61.367188 317.949219 61.367188 322.675781 C 61.367188 327.398438 63.207031 331.839844 66.546875 335.179688 C 69.882812 338.519531 74.324219 340.355469 79.046875 340.355469 C 83.773438 340.355469 88.214844 338.519531 91.554688 335.179688 L 128.945312 297.785156 C 132.28125 294.445312 134.121094 290.003906 134.121094 285.28125 C 134.121094 280.558594 132.28125 276.117188 128.945312 272.777344 C 125.605469 269.4375 121.164062 267.597656 116.441406 267.597656 Z M 122.996094 291.839844 L 85.605469 329.230469 C 83.855469 330.984375 81.527344 331.945312 79.046875 331.945312 C 76.570312 331.945312 74.242188 330.984375 72.492188 329.230469 C 70.742188 327.480469 69.773438 325.152344 69.773438 322.675781 C 69.773438 320.195312 70.742188 317.867188 72.492188 316.117188 L 109.882812 278.722656 C 111.632812 276.972656 113.960938 276.007812 116.441406 276.007812 C 118.917969 276.007812 121.246094 276.972656 122.996094 278.722656 C 124.75 280.476562 125.714844 282.804688 125.714844 285.28125 C 125.710938 287.757812 124.75 290.085938 122.996094 291.839844 Z M 122.996094 291.839844 " fill-opacity="1" fill-rule="nonzero"/></g></svg>